<svg data-v-fde0c5aa="" xmlns="http://www.w3.org/2000/svg" viewBox="0 0 300 300" class="iconLeftSlogan"><!----><defs data-v-fde0c5aa=""><!----></defs><rect data-v-fde0c5aa="" fill="transparent" x="0" y="0" width="300px" height="300px" class="logo-background-square"></rect><defs data-v-fde0c5aa=""><!----></defs><g data-v-fde0c5aa="" id="209f914f-b555-426e-8782-669d2f3ee2ac" fill="#2e3034" transform="matrix(2.828389339612726,0,0,2.828389339612726,117.92057613617195,113.37071447544068)"><path d="M3.06 6.65L3.06 6.65L3.06 6.65Q2.67 6.80 2.34 7.02L2.34 7.02L2.34 7.02Q2.00 7.23 1.65 7.52L1.65 7.52L1.65 7.52Q-0.64 9.38 0.96 11.66L0.96 11.66L0.96 11.66Q1.42 12.21 1.88 12.45L1.88 12.45L1.88 12.45Q2.34 12.69 2.99 12.70L2.99 12.70L2.99 12.70Q3.64 12.70 4.26 12.05L4.26 12.05L4.26 12.05Q4.89 11.40 5.33 10.75L5.33 10.75L5.11 10.55L5.11 10.55Q4.94 10.78 4.68 11.06L4.68 11.06L4.68 11.06Q4.41 11.35 4.01 11.52L4.01 11.52L4.01 11.52Q3.62 11.70 3.12 11.63L3.12 11.63L3.12 11.63Q2.62 11.57 2.12 11.10L2.12 11.10L2.12 11.10Q1.63 10.62 1.32 9.71L1.32 9.71L1.32 9.71Q1.01 8.80 1.36 8.27L1.36 8.27L1.36 8.27Q1.72 7.75 2.38 7.57L2.38 7.57L2.38 7.57Q3.04 7.40 3.49 7.63L3.49 7.63L3.49 7.63Q3.94 7.86 4.35 8.63L4.35 8.63L5.15 7.96L5.15 7.96Q5.02 7.42 4.65 7.05L4.65 7.05L4.65 7.05Q4.27 6.69 3.86 6.59L3.86 6.59L3.86 6.59Q3.44 6.49 3.06 6.65ZM7.18 3.53L6.23 4.05L6.23 4.05Q6.53 4.42 6.51 5.35L6.51 5.35L6.51 5.35Q6.33 11.53 6.44 12.01L6.44 12.01L6.44 12.01Q6.56 12.50 7.12 12.80L7.12 12.80L8.44 11.96L8.31 11.72L8.31 11.72Q7.81 12.04 7.56 11.35L7.56 11.35L7.56 11.35Q7.31 10.66 7.53 4.89L7.53 4.89L7.53 4.89Q7.50 3.89 7.18 3.53L7.18 3.53ZM11.82 6.54L11.82 6.54L11.82 6.54Q10.80 6.56 9.96 7.23L9.96 7.23L9.96 7.23Q9.11 7.90 9.54 8.74L9.54 8.74L10.65 8.07L10.65 8.07Q10.43 6.90 11.86 7.03L11.86 7.03L11.86 7.03Q13.28 7.15 13.10 8.89L13.10 8.89L13.10 8.89Q11.99 8.39 11.11 8.61L11.11 8.61L11.11 8.61Q10.23 8.82 9.50 9.71L9.50 9.71L9.50 9.71Q8.91 10.58 9.12 11.18L9.12 11.18L9.12 11.18Q9.34 11.79 9.82 12.23L9.82 12.23L9.82 12.23Q10.30 12.67 10.90 12.71L10.90 12.71L10.90 12.71Q11.50 12.76 11.91 12.48L11.91 12.48L11.91 12.48Q12.32 12.20 13.11 11.49L13.11 11.49L13.11 11.49Q13.18 12.36 13.67 12.76L13.67 12.76L14.79 11.80L14.70 11.64L14.70 11.64Q14.13 12.10 14.07 10.58L14.07 10.58L14.08 8.14L14.08 8.14Q14.04 7.23 13.44 6.88L13.44 6.88L13.44 6.88Q12.84 6.53 11.82 6.54ZM12.80 9.84L12.80 9.84L13.07 9.47L13.08 11.08L13.08 11.08Q12.21 11.95 11.59 11.90L11.59 11.90L11.59 11.90Q10.96 11.85 10.54 11.48L10.54 11.48L10.54 11.48Q10.12 11.12 9.93 10.64L9.93 10.64L9.93 10.64Q9.73 10.17 10.00 9.71L10.00 9.71L10.00 9.71Q10.27 9.26 11.05 9.19L11.05 9.19L11.05 9.19Q11.84 9.11 12.80 9.84ZM18.10 6.53L18.10 6.53L18.10 6.53Q17.44 6.63 16.99 6.92L16.99 6.92L16.99 6.92Q16.54 7.21 16.18 7.57L16.18 7.57L16.18 7.57Q15.82 7.94 15.72 8.43L15.72 8.43L15.72 8.43Q15.63 8.93 16.05 9.37L16.05 9.37L16.05 9.37Q16.48 9.80 17.53 10.02L17.53 10.02L17.53 10.02Q18.59 10.24 18.99 10.47L18.99 10.47L18.99 10.47Q19.39 10.70 19.48 11.11L19.48 11.11L19.48 11.11Q19.56 11.53 19.27 11.79L19.27 11.79L19.27 11.79Q18.97 12.05 18.19 11.93L18.19 11.93L18.19 11.93Q17.41 11.81 17.00 11.55L17.00 11.55L17.00 11.55Q16.60 11.29 16.24 10.89L16.24 10.89L16.24 10.89Q15.88 10.50 16.15 10.34L16.15 10.34L16.06 10.25L15.29 10.84L15.29 10.84Q15.17 11.20 15.56 11.70L15.56 11.70L15.56 11.70Q15.96 12.21 16.54 12.52L16.54 12.52L16.54 12.52Q17.12 12.82 17.84 12.80L17.84 12.80L17.84 12.80Q18.57 12.78 19.17 12.34L19.17 12.34L19.17 12.34Q19.77 11.90 20.07 11.35L20.07 11.35L20.07 11.35Q20.37 10.81 20.28 10.36L20.28 10.36L20.28 10.36Q20.19 9.91 19.77 9.56L19.77 9.56L19.77 9.56Q19.36 9.20 18.05 8.95L18.05 8.95L18.05 8.95Q16.75 8.70 16.69 8.09L16.69 8.09L16.69 8.09Q16.64 7.48 17.23 7.31L17.23 7.31L17.23 7.31Q17.83 7.14 18.54 7.45L18.54 7.45L18.54 7.45Q19.26 7.76 18.98 8.13L18.98 8.13L19.07 8.24L19.87 7.40L19.87 7.40Q19.77 6.93 19.27 6.68L19.27 6.68L19.27 6.68Q18.76 6.43 18.10 6.53ZM21.84 3.68L21.11 4.38L21.11 4.38Q21.66 4.68 21.78 5.35L21.78 5.35L21.78 5.35Q22.78 4.81 22.56 4.32L22.56 4.32L22.56 4.32Q22.34 3.83 21.84 3.68L21.84 3.68ZM21.27 7.41L21.27 7.41Q21.59 7.39 21.51 9.19L21.51 9.19L21.51 9.19Q21.48 11.33 21.53 11.84L21.53 11.84L21.53 11.84Q21.57 12.35 22.13 12.68L22.13 12.68L22.93 11.84L22.93 11.84Q22.49 11.73 22.54 10.31L22.54 10.31L22.54 10.31Q22.57 7.65 22.55 7.25L22.55 7.25L22.55 7.25Q22.53 6.85 22.18 6.45L22.18 6.45L21.16 7.22L21.27 7.41ZM24.67 3.53L23.70 4.14L23.70 4.14Q24.06 4.60 24.01 5.40L24.01 5.40L24.01 5.40Q23.93 11.56 24.06 12.01L24.06 12.01L24.06 12.01Q24.18 12.46 24.73 12.75L24.73 12.75L25.78 11.99L25.68 11.85L25.68 11.85Q25.27 11.88 25.11 11.18L25.11 11.18L25.12 10.04L25.12 10.04Q25.74 9.61 26.22 9.75L26.22 9.75L26.22 9.75Q26.69 9.88 27.30 11.15L27.30 11.15L27.30 11.15Q27.91 12.42 28.41 12.70L28.41 12.70L29.37 11.87L29.29 11.66L29.29 11.66Q28.83 11.87 28.21 10.57L28.21 10.57L28.21 10.57Q27.58 9.28 26.94 9.13L26.94 9.13L26.94 9.13Q27.80 8.69 28 8.09L28 8.09L28 8.09Q28.20 7.49 27.80 7.00L27.80 7.00L27.80 7.00Q27.40 6.51 26.79 6.56L26.79 6.56L26.79 6.56Q26.19 6.60 25.80 6.81L25.80 6.81L25.80 6.81Q25.40 7.03 25.07 7.21L25.07 7.21L25.12 4.27L25.12 4.27Q25.01 3.79 24.67 3.53L24.67 3.53ZM25.10 9.60L25.11 7.67L25.11 7.67Q25.67 7.10 26.26 7.15L26.26 7.15L26.26 7.15Q26.85 7.20 26.95 7.86L26.95 7.86L26.95 7.86Q27.04 8.53 26.68 8.84L26.68 8.84L26.68 8.84Q26.31 9.15 25.10 9.60L25.10 9.60ZM31.25 3.50L29.80 4.78L29.88 4.93L29.88 4.93Q30.52 4.50 30.61 5.69L30.61 5.69L30.60 10.02L30.60 10.02Q30.60 11.20 31.08 11.92L31.08 11.92L31.08 11.92Q31.55 12.64 32.54 12.71L32.54 12.71L32.54 12.71Q33.53 12.78 34.21 12.30L34.21 12.30L34.21 12.30Q34.90 11.83 35.38 11.17L35.38 11.17L35.38 11.17Q35.86 10.51 36.24 9.52L36.24 9.52L36.24 9.52Q36.62 8.53 36.55 6.97L36.55 6.97L36.55 6.97Q36.48 5.41 35.54 4.46L35.54 4.46L35.54 4.46Q34.60 3.52 33.61 3.50L33.61 3.50L31.83 4.92L31.83 4.92Q31.73 3.93 31.25 3.50L31.25 3.50ZM32.96 4.78L32.96 4.78L32.96 4.78Q33.71 4.49 34.55 5.27L34.55 5.27L34.55 5.27Q35.40 6.05 35.48 7.96L35.48 7.96L35.48 7.96Q35.57 9.87 35.19 10.63L35.19 10.63L35.19 10.63Q34.81 11.38 34.16 11.75L34.16 11.75L34.16 11.75Q33.51 12.11 32.67 11.71L32.67 11.71L32.67 11.71Q31.83 11.31 31.81 9.63L31.81 9.63L31.81 5.56L31.81 5.56Q32.21 5.07 32.96 4.78ZM38.10 6.46L36.89 7.35L37.00 7.52L37.00 7.52Q37.58 7.06 37.59 8.50L37.59 8.50L37.59 8.50Q37.52 11.46 37.61 11.91L37.61 11.91L37.61 11.91Q37.70 12.37 38.33 12.71L38.33 12.71L39.39 11.87L39.31 11.75L39.31 11.75Q38.77 11.96 38.66 11.08L38.66 11.08L38.66 11.08Q38.56 10.19 38.64 8.11L38.64 8.11L38.64 8.11Q39.65 6.60 40.47 8.12L40.47 8.12L41.34 7.42L41.34 7.42Q41.06 6.74 40.61 6.57L40.61 6.57L40.61 6.57Q40.15 6.39 39.71 6.58L39.71 6.58L39.71 6.58Q39.28 6.76 38.57 7.66L38.57 7.66L38.57 7.66Q38.63 6.82 38.10 6.46L38.10 6.46ZM42.54 3.68L41.81 4.38L41.81 4.38Q42.36 4.68 42.48 5.35L42.48 5.35L42.48 5.35Q43.48 4.81 43.26 4.32L43.26 4.32L43.26 4.32Q43.04 3.83 42.54 3.68L42.54 3.68ZM41.97 7.41L41.97 7.41Q42.29 7.39 42.21 9.19L42.21 9.19L42.21 9.19Q42.18 11.33 42.23 11.84L42.23 11.84L42.23 11.84Q42.27 12.35 42.83 12.68L42.83 12.68L43.63 11.84L43.63 11.84Q43.19 11.73 43.24 10.31L43.24 10.31L43.24 10.31Q43.26 7.65 43.25 7.25L43.25 7.25L43.25 7.25Q43.23 6.85 42.88 6.45L42.88 6.45L41.86 7.22L41.97 7.41ZM45.58 6.60L44.28 7.60L44.44 7.76L44.44 7.76Q45.13 7.01 45.08 10.69L45.08 10.69L44.41 11.17L44.41 11.17Q44.62 11.39 45.01 11.74L45.01 11.74L45.01 11.74Q44.89 14.64 45.56 15.33L45.56 15.33L46.46 14.73L46.46 14.73Q45.91 14.10 45.99 12.30L45.99 12.30L45.99 12.30Q46.76 12.65 47.71 12.32L47.71 12.32L47.71 12.32Q48.66 11.98 49.24 11.33L49.24 11.33L49.24 11.33Q49.81 10.67 50.13 9.68L50.13 9.68L50.13 9.68Q50.44 8.70 49.82 7.54L49.82 7.54L49.82 7.54Q49.21 6.38 47.63 6.56L47.63 6.56L46.09 7.75L46.09 7.75Q46.14 7.04 45.58 6.60L45.58 6.60ZM46.14 8.14L46.14 8.14Q47.20 7.09 48.07 7.68L48.07 7.68L48.07 7.68Q48.95 8.28 49.10 9.45L49.10 9.45L49.10 9.45Q49.24 10.62 48.88 11.12L48.88 11.12L48.88 11.12Q48.53 11.61 47.88 11.70L47.88 11.70L47.88 11.70Q47.22 11.79 46.14 11.16L46.14 11.16L46.14 8.14Z"></path></g><defs data-v-fde0c5aa=""><!----></defs><g data-v-fde0c5aa="" id="4b833ccc-3fba-4702-8b6d-f20354da5f94" stroke="none" fill="#488eff" transform="matrix(2.055452292705491,0,0,2.055452292705491,40,117.11276331671215)"><path d="M9.571 20.464l8.064 4.47 8.065-4.47v-8.939l-8.065-4.469-8.064 4.469z"></path><path d="M32 0H0v32h32l-5.054-5.172H5.054V5.172h21.892z"></path></g><defs data-v-fde0c5aa=""><!----></defs><g data-v-fde0c5aa="" id="71be7c47-5fbf-4c0e-8f49-87caa81aae2b" fill="#2e3034" transform="matrix(0.28811539417893245,0,0,0.28811539417893245,118.20112372941195,165.36713701595306)"><path d="M1.99 12.43L1.99 12.43L1.99 12.43Q1.99 11.45 2.22 10.51L2.22 10.51L2.22 10.51Q2.45 9.56 2.87 8.71L2.87 8.71L2.87 8.71Q3.29 7.87 3.87 7.16L3.87 7.16L3.87 7.16Q4.45 6.45 5.15 5.94L5.15 5.94L5.15 5.94Q5.84 5.42 6.62 5.13L6.62 5.13L6.62 5.13Q7.41 4.84 8.23 4.84L8.23 4.84L8.23 4.84Q9.20 4.84 9.74 5.25L9.74 5.25L9.74 5.25Q10.28 5.66 10.28 6.38L10.28 6.38L10.28 6.38Q10.28 6.66 10.20 6.96L10.20 6.96L10.20 6.96Q10.12 7.25 9.97 7.54L9.97 7.54L9.97 7.54Q9.83 7.83 9.63 8.09L9.63 8.09L9.63 8.09Q9.44 8.36 9.20 8.55L9.20 8.55L9.20 8.55Q8.83 8.50 8.57 8.22L8.57 8.22L8.57 8.22Q8.30 7.95 8.23 7.59L8.23 7.59L8.23 7.59Q8.72 7.18 9.01 6.74L9.01 6.74L9.01 6.74Q9.30 6.30 9.30 5.94L9.30 5.94L9.30 5.94Q9.30 5.32 8.53 5.32L8.53 5.32L8.53 5.32Q8.20 5.32 7.86 5.45L7.86 5.45L7.86 5.45Q7.52 5.59 7.17 5.82L7.17 5.82L7.17 5.82Q6.82 6.06 6.49 6.40L6.49 6.40L6.49 6.40Q6.16 6.73 5.88 7.14L5.88 7.14L5.88 7.14Q3.93 9.94 3.93 12.87L3.93 12.87L3.93 12.87Q3.93 13.90 4.26 14.53L4.26 14.53L4.26 14.53Q4.58 15.16 5.11 15.27L5.11 15.27L5.11 15.27Q5.71 15.13 6.64 14.50L6.64 14.50L6.64 14.50Q7.56 13.87 8.65 12.87L8.65 12.87L8.65 12.87Q8.79 13.01 8.82 13.16L8.82 13.16L8.82 13.16Q8.41 13.69 7.98 14.18L7.98 14.18L7.98 14.18Q7.55 14.67 7.12 15.08L7.12 15.08L7.12 15.08Q6.69 15.48 6.28 15.79L6.28 15.79L6.28 15.79Q5.87 16.10 5.52 16.27L5.52 16.27L5.52 16.27Q3.78 16.24 2.88 15.27L2.88 15.27L2.88 15.27Q1.99 14.31 1.99 12.43ZM22.33 14.36L22.33 14.36L22.33 14.36Q22.33 13.78 22.53 12.85L22.53 12.85L22.53 12.85Q22.72 11.93 23.04 10.88L23.04 10.88L23.04 10.88Q22.12 10.95 21.19 11.06L21.19 11.06L21.19 11.06Q20.26 11.17 19.57 11.19L19.57 11.19L19.57 11.19Q18.94 12.66 18.57 13.89L18.57 13.89L18.57 13.89Q18.20 15.13 17.99 16.31L17.99 16.31L17.99 16.31Q17.46 16.18 17.11 15.87L17.11 15.87L17.11 15.87Q16.76 15.55 16.46 15.08L16.46 15.08L16.46 15.08Q16.58 14.85 16.72 14.50L16.72 14.50L16.72 14.50Q16.87 14.15 17.07 13.66L17.07 13.66L17.07 13.66Q17.28 13.16 17.54 12.50L17.54 12.50L17.54 12.50Q17.79 11.83 18.13 10.95L18.13 10.95L18.13 10.95Q17.67 10.75 17.51 10.40L17.51 10.40L17.51 10.40Q17.58 10.35 17.83 10.28L17.83 10.28L17.83 10.28Q18.07 10.22 18.44 10.15L18.44 10.15L18.62 9.70L18.62 9.70Q18.91 8.95 19.10 8.43L19.10 8.43L19.10 8.43Q19.29 7.91 19.43 7.41L19.43 7.41L19.43 7.41Q19.56 6.92 19.68 6.31L19.68 6.31L19.68 6.31Q19.80 5.71 19.96 4.79L19.96 4.79L19.96 4.79Q20.55 4.90 21.04 5.31L21.04 5.31L21.04 5.31Q21.52 5.71 21.87 6.29L21.87 6.29L21.87 6.29Q21.74 6.45 21.56 6.79L21.56 6.79L21.56 6.79Q21.38 7.13 21.16 7.59L21.16 7.59L21.16 7.59Q20.94 8.06 20.69 8.64L20.69 8.64L20.69 8.64Q20.44 9.23 20.15 9.87L20.15 9.87L20.15 9.87Q21.01 9.76 21.90 9.66L21.90 9.66L21.90 9.66Q22.79 9.56 23.48 9.52L23.48 9.52L23.48 9.52Q23.73 8.79 24.00 8.10L24.00 8.10L24.00 8.10Q24.28 7.41 24.54 6.83L24.54 6.83L24.54 6.83Q24.81 6.26 25.05 5.82L25.05 5.82L25.05 5.82Q25.30 5.39 25.49 5.18L25.49 5.18L25.49 5.18Q25.63 5.19 25.87 5.29L25.87 5.29L25.87 5.29Q26.10 5.38 26.33 5.50L26.33 5.50L26.33 5.50Q26.57 5.63 26.77 5.78L26.77 5.78L26.77 5.78Q26.96 5.92 27.03 6.05L27.03 6.05L27.03 6.05Q26.78 6.29 26.53 6.66L26.53 6.66L26.53 6.66Q26.28 7.04 26.03 7.53L26.03 7.53L26.03 7.53Q25.79 8.02 25.55 8.60L25.55 8.60L25.55 8.60Q25.31 9.17 25.10 9.79L25.10 9.79L25.10 9.79Q25.38 10.04 25.38 10.42L25.38 10.42L25.38 10.42Q25.38 10.68 25.27 10.91L25.27 10.91L25.27 10.91Q25.14 10.88 25.02 10.87L25.02 10.87L25.02 10.87Q24.89 10.86 24.75 10.85L24.75 10.85L24.75 10.85Q24.51 11.61 24.32 12.35L24.32 12.35L24.32 12.35Q24.12 13.09 23.99 13.76L23.99 13.76L23.99 13.76Q23.86 14.43 23.78 14.99L23.78 14.99L23.78 14.99Q23.70 15.55 23.70 15.93L23.70 15.93L23.70 15.93Q23.70 16.07 23.71 16.16L23.71 16.16L23.71 16.16Q23.72 16.24 23.73 16.30L23.73 16.30L23.73 16.30Q23.42 16.28 23.28 16.19L23.28 16.19L23.28 16.19Q23.14 16.10 23.07 16.00L23.07 16.00L23.07 16.00Q23.00 15.89 22.95 15.79L22.95 15.79L22.95 15.79Q22.89 15.68 22.76 15.62L22.76 15.62L22.76 15.62Q22.67 15.58 22.58 15.43L22.58 15.43L22.58 15.43Q22.50 15.27 22.44 15.08L22.44 15.08L22.44 15.08Q22.39 14.88 22.36 14.69L22.36 14.69L22.36 14.69Q22.33 14.49 22.33 14.36ZM39.77 4.98L39.77 4.98L39.77 4.98Q40.04 5.10 40.32 5.27L40.32 5.27L40.32 5.27Q40.60 5.45 40.84 5.63L40.84 5.63L40.84 5.63Q41.08 5.81 41.24 5.98L41.24 5.98L41.24 5.98Q41.40 6.16 41.41 6.27L41.41 6.27L41.41 6.27Q41.17 6.22 40.94 6.20L40.94 6.20L40.94 6.20Q40.70 6.17 40.50 6.17L40.50 6.17L40.50 6.17Q39.87 6.17 39.25 6.48L39.25 6.48L39.25 6.48Q38.63 6.79 38.07 7.32L38.07 7.32L38.07 7.32Q37.51 7.85 37.03 8.57L37.03 8.57L37.03 8.57Q36.55 9.28 36.21 10.09L36.21 10.09L36.21 10.09Q35.87 10.91 35.67 11.77L35.67 11.77L35.67 11.77Q35.48 12.64 35.48 13.48L35.48 13.48L35.48 13.48Q35.48 14.57 35.84 15.11L35.84 15.11L35.84 15.11Q36.20 15.64 36.90 15.64L36.90 15.64L36.90 15.64Q37.24 15.64 37.63 15.51L37.63 15.51L37.63 15.51Q38.02 15.37 38.43 15.13L38.43 15.13L38.43 15.13Q38.84 14.90 39.23 14.56L39.23 14.56L39.23 14.56Q39.62 14.22 39.96 13.82L39.96 13.82L39.96 13.82Q40.45 13.23 40.84 12.48L40.84 12.48L40.84 12.48Q41.23 11.73 41.50 10.89L41.50 10.89L41.50 10.89Q41.78 10.05 41.92 9.16L41.92 9.16L41.92 9.16Q42.07 8.27 42.07 7.42L42.07 7.42L42.07 7.42Q42.07 7.08 42.06 6.85L42.06 6.85L42.06 6.85Q42.04 6.62 42.02 6.46L42.02 6.46L42.02 6.46Q42 6.30 41.99 6.20L41.99 6.20L41.99 6.20Q41.97 6.10 41.96 6.03L41.96 6.03L41.96 6.03Q42.13 6.12 42.33 6.24L42.33 6.24L42.33 6.24Q42.53 6.36 42.71 6.59L42.71 6.59L42.71 6.59Q42.88 6.82 43.00 7.20L43.00 7.20L43.00 7.20Q43.12 7.57 43.12 8.18L43.12 8.18L43.12 8.18Q43.12 9.16 42.89 10.10L42.89 10.10L42.89 10.10Q42.66 11.05 42.24 11.90L42.24 11.90L42.24 11.90Q41.83 12.75 41.27 13.50L41.27 13.50L41.27 13.50Q40.71 14.24 40.07 14.80L40.07 14.80L40.07 14.80Q39.23 15.54 38.28 15.95L38.28 15.95L38.28 15.95Q37.32 16.35 36.44 16.35L36.44 16.35L36.44 16.35Q35.15 16.35 34.48 15.53L34.48 15.53L34.48 15.53Q33.80 14.71 33.80 13.12L33.80 13.12L33.80 13.12Q33.80 12.26 33.98 11.31L33.98 11.31L33.98 11.31Q34.17 10.36 34.52 9.44L34.52 9.44L34.52 9.44Q34.86 8.51 35.34 7.68L35.34 7.68L35.34 7.68Q35.81 6.85 36.38 6.21L36.38 6.21L36.38 6.21Q36.95 5.57 37.60 5.19L37.60 5.19L37.60 5.19Q38.25 4.82 38.93 4.82L38.93 4.82L38.93 4.82Q39.16 4.82 39.35 4.85L39.35 4.85L39.35 4.85Q39.55 4.89 39.77 4.98ZM56.90 4.98L56.90 4.98L56.90 4.98Q57.16 5.10 57.44 5.27L57.44 5.27L57.44 5.27Q57.72 5.45 57.96 5.63L57.96 5.63L57.96 5.63Q58.20 5.81 58.36 5.98L58.36 5.98L58.36 5.98Q58.52 6.16 58.53 6.27L58.53 6.27L58.53 6.27Q58.30 6.22 58.06 6.20L58.06 6.20L58.06 6.20Q57.82 6.17 57.62 6.17L57.62 6.17L57.62 6.17Q56.99 6.17 56.37 6.48L56.37 6.48L56.37 6.48Q55.75 6.79 55.19 7.32L55.19 7.32L55.19 7.32Q54.63 7.85 54.15 8.57L54.15 8.57L54.15 8.57Q53.68 9.28 53.33 10.09L53.33 10.09L53.33 10.09Q52.99 10.91 52.79 11.77L52.79 11.77L52.79 11.77Q52.60 12.64 52.60 13.48L52.60 13.48L52.60 13.48Q52.60 14.57 52.96 15.11L52.96 15.11L52.96 15.11Q53.33 15.64 54.03 15.64L54.03 15.64L54.03 15.64Q54.36 15.64 54.75 15.51L54.75 15.51L54.75 15.51Q55.15 15.37 55.55 15.13L55.55 15.13L55.55 15.13Q55.96 14.90 56.35 14.56L56.35 14.56L56.35 14.56Q56.74 14.22 57.08 13.82L57.08 13.82L57.08 13.82Q57.57 13.23 57.96 12.48L57.96 12.48L57.96 12.48Q58.35 11.73 58.63 10.89L58.63 10.89L58.63 10.89Q58.90 10.05 59.05 9.16L59.05 9.16L59.05 9.16Q59.19 8.27 59.19 7.42L59.19 7.42L59.19 7.42Q59.19 7.08 59.18 6.85L59.18 6.85L59.18 6.85Q59.16 6.62 59.14 6.46L59.14 6.46L59.14 6.46Q59.12 6.30 59.11 6.20L59.11 6.20L59.11 6.20Q59.09 6.10 59.08 6.03L59.08 6.03L59.08 6.03Q59.25 6.12 59.45 6.24L59.45 6.24L59.45 6.24Q59.65 6.36 59.83 6.59L59.83 6.59L59.83 6.59Q60.00 6.82 60.12 7.20L60.12 7.20L60.12 7.20Q60.24 7.57 60.24 8.18L60.24 8.18L60.24 8.18Q60.24 9.16 60.01 10.10L60.01 10.10L60.01 10.10Q59.78 11.05 59.37 11.90L59.37 11.90L59.37 11.90Q58.95 12.75 58.39 13.50L58.39 13.50L58.39 13.50Q57.83 14.24 57.19 14.80L57.19 14.80L57.19 14.80Q56.35 15.54 55.40 15.95L55.40 15.95L55.40 15.95Q54.45 16.35 53.56 16.35L53.56 16.35L53.56 16.35Q52.28 16.35 51.60 15.53L51.60 15.53L51.60 15.53Q50.92 14.71 50.92 13.12L50.92 13.12L50.92 13.12Q50.92 12.26 51.11 11.31L51.11 11.31L51.11 11.31Q51.30 10.36 51.64 9.44L51.64 9.44L51.64 9.44Q51.98 8.51 52.46 7.68L52.46 7.68L52.46 7.68Q52.93 6.85 53.50 6.21L53.50 6.21L53.50 6.21Q54.07 5.57 54.72 5.19L54.72 5.19L54.72 5.19Q55.37 4.82 56.06 4.82L56.06 4.82L56.06 4.82Q56.28 4.82 56.48 4.85L56.48 4.85L56.48 4.85Q56.67 4.89 56.90 4.98ZM76.69 5.74L76.69 5.74L76.69 5.74Q76.73 5.98 76.76 6.07L76.76 6.07L76.76 6.07Q76.78 6.16 76.78 6.31L76.78 6.31L76.78 6.31Q76.78 6.78 76.57 7.18L76.57 7.18L76.57 7.18Q76.37 7.57 76.02 7.74L76.02 7.74L76.02 7.74Q75.74 7.36 75.33 7.09L75.33 7.09L75.33 7.09Q74.93 6.82 74.45 6.64L74.45 6.64L74.45 6.64Q73.96 6.47 73.44 6.38L73.44 6.38L73.44 6.38Q72.93 6.30 72.44 6.30L72.44 6.30L72.44 6.30Q71.95 6.30 71.52 6.38L71.52 6.38L71.52 6.38Q71.09 6.45 70.76 6.59L70.76 6.59L70.76 6.59Q70.43 6.72 70.25 6.92L70.25 6.92L70.25 6.92Q70.06 7.11 70.06 7.36L70.06 7.36L70.06 7.36Q70.10 7.67 70.43 7.99L70.43 7.99L70.43 7.99Q70.77 8.30 71.26 8.60L71.26 8.60L71.26 8.60Q71.75 8.90 72.34 9.20L72.34 9.20L72.34 9.20Q72.94 9.49 73.51 9.76L73.51 9.76L73.51 9.76Q74.23 10.09 74.75 10.38L74.75 10.38L74.75 10.38Q75.26 10.67 75.60 11.01L75.60 11.01L75.60 11.01Q75.94 11.35 76.10 11.79L76.10 11.79L76.10 11.79Q76.27 12.22 76.27 12.84L76.27 12.84L76.27 12.84Q76.27 13.55 76.03 14.18L76.03 14.18L76.03 14.18Q75.80 14.80 75.34 15.26L75.34 15.26L75.34 15.26Q74.89 15.72 74.24 15.98L74.24 15.98L74.24 15.98Q73.60 16.24 72.80 16.24L72.80 16.24L72.80 16.24Q72.02 16.24 71.11 16.00L71.11 16.00L71.11 16.00Q70.20 15.76 69.41 15.35L69.41 15.35L69.41 15.35Q68.61 14.94 68.09 14.40L68.09 14.40L68.09 14.40Q67.56 13.86 67.56 13.26L67.56 13.26L67.56 13.26Q67.56 12.98 67.73 12.54L67.73 12.54L67.73 12.54Q67.89 12.11 68.31 11.63L68.31 11.63L68.31 11.63Q68.35 12.05 68.76 12.63L68.76 12.63L68.76 12.63Q69.17 13.20 70 13.69L70 13.69L70 13.69Q70.77 14.14 71.59 14.34L71.59 14.34L71.59 14.34Q72.41 14.55 73.12 14.55L73.12 14.55L73.12 14.55Q73.91 14.55 74.40 14.35L74.40 14.35L74.40 14.35Q74.89 14.15 75.17 13.88L75.17 13.88L75.17 13.88Q75.45 13.61 75.56 13.33L75.56 13.33L75.56 13.33Q75.67 13.05 75.68 12.88L75.68 12.88L75.68 12.88Q75.67 12.60 75.43 12.34L75.43 12.34L75.43 12.34Q75.18 12.08 74.77 11.84L74.77 11.84L74.77 11.84Q74.35 11.59 73.81 11.34L73.81 11.34L73.81 11.34Q73.26 11.09 72.67 10.84L72.67 10.84L72.67 10.84Q71.79 10.44 71.16 10.10L71.16 10.10L71.16 10.10Q70.52 9.76 70.11 9.40L70.11 9.40L70.11 9.40Q69.69 9.04 69.50 8.65L69.50 8.65L69.50 8.65Q69.31 8.26 69.31 7.76L69.31 7.76L69.31 7.76Q69.31 6.97 69.79 6.27L69.79 6.27L69.79 6.27Q70.27 5.57 71.16 5.21L71.16 5.21L71.16 5.21Q71.61 5.01 72.12 4.93L72.12 4.93L72.12 4.93Q72.63 4.84 73.12 4.84L73.12 4.84L73.12 4.84Q74.05 4.84 74.93 5.10L74.93 5.10L74.93 5.10Q75.81 5.35 76.69 5.74ZM90.17 9.21L90.17 9.21L90.17 9.21Q90.64 9.21 90.90 9.46L90.90 9.46L90.90 9.46Q91.15 9.72 91.15 10.16L91.15 10.16L91.15 10.16Q91.15 10.28 91.13 10.39L91.13 10.39L91.13 10.39Q91.11 10.51 91.08 10.60L91.08 10.60L91.08 10.60Q90.90 10.57 90.68 10.55L90.68 10.55L90.68 10.55Q90.45 10.53 90.15 10.53L90.15 10.53L90.15 10.53Q89.54 10.53 88.93 10.63L88.93 10.63L88.93 10.63Q88.31 10.74 87.75 10.81L87.75 10.81L87.75 10.81Q87.43 11.55 87.16 12.24L87.16 12.24L87.16 12.24Q86.90 12.94 86.71 13.51L86.71 13.51L86.71 13.51Q86.52 14.08 86.42 14.50L86.42 14.50L86.42 14.50Q86.31 14.92 86.30 15.13L86.30 15.13L86.30 15.13Q87.43 14.90 88.59 14.73L88.59 14.73L88.59 14.73Q89.74 14.56 91.01 14.48L91.01 14.48L91.01 14.48Q91.17 14.71 91.27 14.99L91.27 14.99L91.27 14.99Q91.38 15.27 91.38 15.60L91.38 15.60L91.38 15.60Q91.38 15.68 91.38 15.78L91.38 15.78L91.38 15.78Q91.38 15.88 91.35 15.97L91.35 15.97L91.35 15.97Q90.96 15.96 90.52 15.95L90.52 15.95L90.52 15.95Q90.09 15.95 89.39 15.95L89.39 15.95L89.39 15.95Q88.93 15.95 88.52 15.97L88.52 15.97L88.52 15.97Q88.10 15.99 87.68 16.03L87.68 16.03L87.68 16.03Q87.26 16.07 86.79 16.14L86.79 16.14L86.79 16.14Q86.32 16.21 85.74 16.31L85.74 16.31L85.74 16.31Q85.09 16.06 84.49 15.08L84.49 15.08L84.49 15.08Q84.73 14.57 85.16 13.54L85.16 13.54L85.16 13.54Q85.58 12.52 86.24 10.79L86.24 10.79L86.24 10.79Q85.61 10.60 85.41 10.09L85.41 10.09L85.41 10.09Q85.48 10.02 85.82 9.92L85.82 9.92L85.82 9.92Q86.16 9.81 86.65 9.70L86.65 9.70L86.65 9.70Q86.86 9.16 87.00 8.75L87.00 8.75L87.00 8.75Q87.15 8.34 87.26 7.99L87.26 7.99L87.26 7.99Q87.37 7.63 87.47 7.29L87.47 7.29L87.47 7.29Q87.56 6.94 87.64 6.54L87.64 6.54L87.64 6.54Q87.15 6.51 86.87 6.27L86.87 6.27L86.87 6.27Q86.59 6.02 86.59 5.63L86.59 5.63L86.59 5.63Q86.59 5.52 86.63 5.36L86.63 5.36L86.63 5.36Q86.66 5.21 86.70 5.10L86.70 5.10L86.70 5.10Q86.98 5.14 87.24 5.15L87.24 5.15L87.24 5.15Q87.50 5.17 87.92 5.17L87.92 5.17L87.92 5.17Q88.80 5.17 89.57 5.12L89.57 5.12L89.57 5.12Q90.34 5.07 90.97 5.01L90.97 5.01L90.97 5.01Q91.59 4.96 92.04 4.91L92.04 4.91L92.04 4.91Q92.48 4.86 92.72 4.86L92.72 4.86L92.72 4.86Q93.04 4.86 93.30 5.19L93.30 5.19L93.30 5.19Q93.55 5.53 93.67 6.15L93.67 6.15L93.67 6.15Q93.24 6.10 92.97 6.09L92.97 6.09L92.97 6.09Q92.69 6.08 92.48 6.08L92.48 6.08L92.48 6.08Q91.71 6.08 91.08 6.15L91.08 6.15L91.08 6.15Q90.44 6.23 89.85 6.31L89.85 6.31L89.85 6.31Q89.77 6.44 89.66 6.64L89.66 6.64L89.66 6.64Q89.56 6.83 89.39 7.18L89.39 7.18L89.39 7.18Q89.22 7.53 88.98 8.06L88.98 8.06L88.98 8.06Q88.73 8.60 88.38 9.39L88.38 9.39L88.38 9.39Q88.91 9.31 89.38 9.26L89.38 9.26L89.38 9.26Q89.85 9.21 90.17 9.21ZM117.19 4.98L117.19 4.98L117.19 4.98Q117.43 5.10 117.70 5.27L117.70 5.27L117.70 5.27Q117.96 5.45 118.19 5.63L118.19 5.63L118.19 5.63Q118.41 5.82 118.57 6.00L118.57 6.00L118.57 6.00Q118.72 6.17 118.72 6.27L118.72 6.27L118.72 6.27Q118.52 6.23 118.29 6.20L118.29 6.20L118.29 6.20Q118.06 6.17 117.85 6.17L117.85 6.17L117.85 6.17Q117.10 6.17 116.38 6.50L116.38 6.50L116.38 6.50Q115.67 6.83 115.02 7.45L115.02 7.45L115.02 7.45Q114.38 8.06 113.84 8.95L113.84 8.95L113.84 8.95Q113.30 9.84 112.91 10.96L112.91 10.96L112.91 10.96Q112.59 11.90 112.39 12.82L112.39 12.82L112.39 12.82Q112.20 13.73 112.20 14.35L112.20 14.35L112.20 14.35Q112.20 15.13 112.52 15.16L112.52 15.16L112.52 15.16Q112.60 15.16 112.80 15.20L112.80 15.20L112.80 15.20Q113.01 15.23 113.24 15.29L113.24 15.29L113.24 15.29Q113.47 15.34 113.70 15.41L113.70 15.41L113.70 15.41Q113.93 15.47 114.09 15.53L114.09 15.53L114.09 15.53Q114.62 15.50 115.33 15.04L115.33 15.04L115.33 15.04Q116.05 14.57 116.73 13.80L116.73 13.80L116.73 13.80Q117.33 13.13 117.82 12.33L117.82 12.33L117.82 12.33Q118.30 11.52 118.64 10.63L118.64 10.63L118.64 10.63Q118.97 9.74 119.15 8.81L119.15 8.81L119.15 8.81Q119.32 7.87 119.32 6.94L119.32 6.94L119.32 6.94Q119.32 6.66 119.31 6.40L119.31 6.40L119.31 6.40Q119.29 6.13 119.27 6.03L119.27 6.03L119.27 6.03Q119.84 6.31 120.08 6.69L120.08 6.69L120.08 6.69Q120.32 7.07 120.32 7.66L120.32 7.66L120.32 7.66Q120.32 8.50 120.05 9.46L120.05 9.46L120.05 9.46Q119.78 10.43 119.31 11.40L119.31 11.40L119.31 11.40Q118.85 12.36 118.20 13.25L118.20 13.25L118.20 13.25Q117.56 14.14 116.80 14.84L116.80 14.84L116.80 14.84Q115.81 15.76 115.18 15.88L115.18 15.88L115.18 15.88Q115.56 16.07 116.05 16.30L116.05 16.30L116.05 16.30Q116.54 16.53 117.00 16.74L117.00 16.74L117.00 16.74Q117.46 16.94 117.82 17.08L117.82 17.08L117.82 17.08Q118.19 17.22 118.31 17.23L118.31 17.23L118.31 17.23Q118.45 17.22 118.68 17.06L118.68 17.06L118.68 17.06Q118.90 16.90 119.06 16.67L119.06 16.67L119.06 16.67Q119.13 16.76 119.19 16.90L119.19 16.90L119.19 16.90Q119.25 17.04 119.27 17.11L119.27 17.11L119.27 17.11Q119.21 17.30 119.03 17.56L119.03 17.56L119.03 17.56Q118.86 17.82 118.64 18.07L118.64 18.07L118.64 18.07Q118.41 18.31 118.18 18.49L118.18 18.49L118.18 18.49Q117.95 18.68 117.78 18.72L117.78 18.72L117.78 18.72Q117.54 18.70 117.34 18.66L117.34 18.66L117.34 18.66Q117.14 18.61 116.90 18.50L116.90 18.50L116.90 18.50Q116.66 18.40 116.37 18.21L116.37 18.21L116.37 18.21Q116.07 18.02 115.64 17.72L115.64 17.72L115.64 17.72Q114.87 17.19 114.30 16.84L114.30 16.84L114.30 16.84Q113.72 16.49 113.25 16.28L113.25 16.28L113.25 16.28Q112.77 16.07 112.35 15.99L112.35 15.99L112.35 15.99Q111.93 15.90 111.48 15.90L111.48 15.90L111.48 15.90Q109.91 15.90 109.75 16.95L109.75 16.95L109.75 16.95Q109.54 16.86 109.51 16.69L109.51 16.69L109.51 16.69Q109.59 15.97 110.03 15.60L110.03 15.60L110.03 15.60Q110.47 15.22 111.40 15.11L111.40 15.11L111.40 15.11Q110.75 14.55 110.75 13.15L110.75 13.15L110.75 13.15Q110.75 12.17 110.98 11.16L110.98 11.16L110.98 11.16Q111.22 10.16 111.61 9.24L111.61 9.24L111.61 9.24Q112.01 8.32 112.55 7.51L112.55 7.51L112.55 7.51Q113.09 6.71 113.72 6.10L113.72 6.10L113.72 6.10Q114.34 5.50 115.01 5.16L115.01 5.16L115.01 5.16Q115.68 4.82 116.34 4.82L116.34 4.82L116.34 4.82Q116.58 4.82 116.78 4.86L116.78 4.86L116.78 4.86Q116.98 4.90 117.19 4.98ZM132.69 5.75L132.69 5.75L132.69 5.75Q132.08 6.58 131.57 7.57L131.57 7.57L131.57 7.57Q131.07 8.57 130.71 9.61L130.71 9.61L130.71 9.61Q130.35 10.65 130.16 11.67L130.16 11.67L130.16 11.67Q129.98 12.68 129.98 13.57L129.98 13.57L129.98 13.57Q129.98 14.66 130.30 15.15L130.30 15.15L130.30 15.15Q130.62 15.64 131.40 15.64L131.40 15.64L131.40 15.64Q132.31 15.64 133 15.00L133 15.00L133 15.00Q133.69 14.36 134.29 13.24L134.29 13.24L134.29 13.24Q134.68 12.52 134.96 11.65L134.96 11.65L134.96 11.65Q135.24 10.78 135.41 9.86L135.41 9.86L135.41 9.86Q135.59 8.95 135.67 8.02L135.67 8.02L135.67 8.02Q135.76 7.08 135.76 6.23L135.76 6.23L135.76 6.23Q135.76 5.68 135.74 5.43L135.74 5.43L135.74 5.43Q135.73 5.18 135.70 5.03L135.70 5.03L135.70 5.03Q135.74 5.03 135.91 5.05L135.91 5.05L135.91 5.05Q136.08 5.08 136.30 5.12L136.30 5.12L136.30 5.12Q136.51 5.17 136.73 5.24L136.73 5.24L136.73 5.24Q136.95 5.31 137.10 5.39L137.10 5.39L137.10 5.39Q137.03 6.45 136.84 7.59L136.84 7.59L136.84 7.59Q136.65 8.72 136.35 9.83L136.35 9.83L136.35 9.83Q136.04 10.93 135.63 11.96L135.63 11.96L135.63 11.96Q135.23 12.98 134.72 13.79L134.72 13.79L134.72 13.79Q133.98 14.99 133.06 15.67L133.06 15.67L133.06 15.67Q132.13 16.35 130.87 16.35L130.87 16.35L130.87 16.35Q129.58 16.35 128.87 15.60L128.87 15.60L128.87 15.60Q128.16 14.85 128.16 13.33L128.16 13.33L128.16 13.33Q128.16 12.45 128.35 11.33L128.35 11.33L128.35 11.33Q128.55 10.22 128.88 9.07L128.88 9.07L128.88 9.07Q129.21 7.91 129.64 6.81L129.64 6.81L129.64 6.81Q130.07 5.71 130.55 4.84L130.55 4.84L130.55 4.84Q130.79 4.86 131.11 4.94L131.11 4.94L131.11 4.94Q131.43 5.03 131.74 5.16L131.74 5.16L131.74 5.16Q132.05 5.29 132.31 5.45L132.31 5.45L132.31 5.45Q132.57 5.61 132.69 5.75ZM144.70 16.24L144.70 16.24L144.70 16.24Q144.03 16.04 143.77 15.85L143.77 15.85L143.77 15.85Q143.51 15.65 143.51 15.36L143.51 15.36L143.51 15.36Q143.51 15.13 143.64 14.73L143.64 14.73L143.64 14.73Q143.77 14.32 144.01 13.77L144.01 13.77L144.01 13.77Q144.26 13.22 144.60 12.54L144.60 12.54L144.60 12.54Q144.94 11.87 145.38 11.10L145.38 11.10L145.38 11.10Q145.01 11.09 144.72 11.08L144.72 11.08L144.72 11.08Q144.44 11.07 144.26 11.07L144.26 11.07L144.26 11.07Q144.34 10.86 144.73 10.71L144.73 10.71L144.73 10.71Q145.12 10.56 145.77 10.44L145.77 10.44L145.77 10.44Q146.31 9.53 146.94 8.71L146.94 8.71L146.94 8.71Q147.56 7.88 148.19 7.19L148.19 7.19L148.19 7.19Q148.82 6.50 149.45 5.97L149.45 5.97L149.45 5.97Q150.08 5.45 150.65 5.14L150.65 5.14L150.65 5.14Q150.67 5.04 150.68 4.97L150.68 4.97L150.68 4.97Q150.68 4.90 150.68 4.87L150.68 4.87L150.68 4.87Q150.88 4.87 151.21 4.97L151.21 4.97L151.21 4.97Q151.54 5.07 151.85 5.21L151.85 5.21L151.85 5.21Q152.17 5.35 152.41 5.49L152.41 5.49L152.41 5.49Q152.66 5.64 152.68 5.74L152.68 5.74L152.68 5.74Q152.22 6.55 151.77 8.17L151.77 8.17L151.77 8.17Q151.33 9.79 151.03 12.04L151.03 12.04L151.03 12.04Q150.96 12.60 150.91 13.31L150.91 13.31L150.91 13.31Q150.86 14.03 150.86 14.91L150.86 14.91L150.86 14.91Q150.86 15.22 150.86 15.54L150.86 15.54L150.86 15.54Q150.86 15.86 150.89 16.21L150.89 16.21L150.89 16.21Q150.86 16.23 150.84 16.23L150.84 16.23L150.84 16.23Q150.81 16.23 150.72 16.23L150.72 16.23L150.72 16.23Q150.53 16.23 150.27 16.16L150.27 16.16L150.27 16.16Q150.01 16.10 149.76 16.01L149.76 16.01L149.76 16.01Q149.52 15.92 149.34 15.81L149.34 15.81L149.34 15.81Q149.17 15.69 149.13 15.61L149.13 15.61L149.13 15.61Q149.11 15.43 149.11 15.25L149.11 15.25L149.11 15.25Q149.11 15.08 149.11 14.88L149.11 14.88L149.11 14.88Q149.11 14.01 149.18 13.12L149.18 13.12L149.18 13.12Q149.24 12.22 149.39 11.27L149.39 11.27L149.39 11.27Q149.20 11.26 148.88 11.23L148.88 11.23L148.88 11.23Q148.55 11.21 148.16 11.20L148.16 11.20L148.16 11.20Q147.76 11.19 147.30 11.16L147.30 11.16L147.30 11.16Q146.85 11.14 146.41 11.13L146.41 11.13L146.41 11.13Q146.08 11.76 145.78 12.38L145.78 12.38L145.78 12.38Q145.49 13.01 145.28 13.64L145.28 13.64L145.28 13.64Q145.04 14.31 144.89 14.98L144.89 14.98L144.89 14.98Q144.75 15.65 144.70 16.24ZM150.11 7.83L150.11 7.83L150.11 7.83Q150.16 7.63 150.24 7.29L150.24 7.29L150.24 7.29Q150.32 6.94 150.39 6.57L150.39 6.57L150.39 6.57Q150.04 6.69 149.61 7.03L149.61 7.03L149.61 7.03Q149.18 7.36 148.73 7.86L148.73 7.86L148.73 7.86Q148.27 8.36 147.81 8.98L147.81 8.98L147.81 8.98Q147.34 9.60 146.90 10.30L146.90 10.30L146.90 10.30Q148.08 10.21 149.58 10.18L149.58 10.18L149.58 10.18Q149.69 9.59 149.82 9.01L149.82 9.01L149.82 9.01Q149.95 8.43 150.11 7.83ZM165.27 14.38L165.27 14.38L165.27 14.38Q165.62 14.98 165.62 15.54L165.62 15.54L165.62 15.54Q165.62 15.67 165.60 15.77L165.60 15.77L165.60 15.77Q165.58 15.88 165.55 15.99L165.55 15.99L165.55 15.99Q165.31 15.96 165.05 15.95L165.05 15.95L165.05 15.95Q164.79 15.93 164.51 15.93L164.51 15.93L164.51 15.93Q164.18 15.93 163.84 15.95L163.84 15.95L163.84 15.95Q163.49 15.97 163.07 16.02L163.07 16.02L163.07 16.02Q162.65 16.06 162.13 16.13L162.13 16.13L162.13 16.13Q161.62 16.20 160.93 16.31L160.93 16.31L160.93 16.31Q160.61 16.20 160.29 15.87L160.29 15.87L160.29 15.87Q159.96 15.54 159.68 15.08L159.68 15.08L159.68 15.08Q159.82 14.77 160.03 14.31L160.03 14.31L160.03 14.31Q160.24 13.86 160.52 13.21L160.52 13.21L160.52 13.21Q160.80 12.56 161.15 11.68L161.15 11.68L161.15 11.68Q161.49 10.81 161.88 9.66L161.88 9.66L161.88 9.66Q162.13 8.90 162.32 8.33L162.32 8.33L162.32 8.33Q162.50 7.76 162.64 7.22L162.64 7.22L162.64 7.22Q162.79 6.68 162.93 6.09L162.93 6.09L162.93 6.09Q163.07 5.50 163.24 4.73L163.24 4.73L163.24 4.73Q163.80 4.84 164.21 5.14L164.21 5.14L164.21 5.14Q164.63 5.45 165.00 6.01L165.00 6.01L165.00 6.01Q164.89 6.19 164.71 6.59L164.71 6.59L164.71 6.59Q164.53 7 164.28 7.58L164.28 7.58L164.28 7.58Q164.04 8.16 163.74 8.90L163.74 8.90L163.74 8.90Q163.45 9.63 163.13 10.47L163.13 10.47L163.13 10.47Q162.82 11.30 162.53 12.03L162.53 12.03L162.53 12.03Q162.23 12.75 162.00 13.34L162.00 13.34L162.00 13.34Q161.77 13.93 161.63 14.35L161.63 14.35L161.63 14.35Q161.49 14.77 161.49 14.98L161.49 14.98L161.49 14.98Q161.71 14.97 161.90 14.95L161.90 14.95L161.90 14.95Q162.08 14.94 162.27 14.90L162.27 14.90L162.27 14.90Q162.47 14.87 162.70 14.82L162.70 14.82L162.70 14.82Q162.93 14.77 163.25 14.69L163.25 14.69L163.25 14.69Q163.53 14.62 163.77 14.57L163.77 14.57L163.77 14.57Q164.01 14.52 164.24 14.48L164.24 14.48L164.24 14.48Q164.47 14.45 164.72 14.43L164.72 14.43L164.72 14.43Q164.96 14.41 165.27 14.38ZM174.23 14.38L174.23 14.38L174.23 14.38Q174.23 13.87 174.39 13.07L174.39 13.07L174.39 13.07Q174.55 12.26 174.81 11.33L174.81 11.33L174.81 11.33Q175.07 10.40 175.41 9.43L175.41 9.43L175.41 9.43Q175.74 8.46 176.09 7.60L176.09 7.60L176.09 7.60Q176.44 6.75 176.78 6.10L176.78 6.10L176.78 6.10Q177.11 5.46 177.38 5.18L177.38 5.18L177.38 5.18Q177.52 5.19 177.75 5.29L177.75 5.29L177.75 5.29Q177.98 5.38 178.22 5.50L178.22 5.50L178.22 5.50Q178.46 5.63 178.65 5.78L178.65 5.78L178.65 5.78Q178.85 5.92 178.91 6.05L178.91 6.05L178.91 6.05Q178.50 6.41 178.10 7.15L178.10 7.15L178.10 7.15Q177.70 7.88 177.33 8.82L177.33 8.82L177.33 8.82Q176.96 9.76 176.64 10.80L176.64 10.80L176.64 10.80Q176.32 11.84 176.08 12.82L176.08 12.82L176.08 12.82Q175.84 13.80 175.71 14.64L175.71 14.64L175.71 14.64Q175.57 15.48 175.57 16.00L175.57 16.00L175.57 16.00Q175.57 16.24 175.62 16.30L175.62 16.30L175.62 16.30Q175.31 16.28 175.17 16.19L175.17 16.19L175.17 16.19Q175.03 16.10 174.95 16.00L174.95 16.00L174.95 16.00Q174.87 15.89 174.81 15.79L174.81 15.79L174.81 15.79Q174.75 15.68 174.62 15.62L174.62 15.62L174.62 15.62Q174.52 15.58 174.45 15.43L174.45 15.43L174.45 15.43Q174.38 15.27 174.33 15.09L174.33 15.09L174.33 15.09Q174.29 14.90 174.26 14.70L174.26 14.70L174.26 14.70Q174.23 14.50 174.23 14.38ZM187.99 6.69L187.99 6.69L187.99 6.69Q187.43 6.69 187.13 6.38L187.13 6.38L187.13 6.38Q186.83 6.06 186.83 5.61L186.83 5.61L186.83 5.61Q186.83 5.50 186.86 5.35L186.86 5.35L186.86 5.35Q186.90 5.19 186.96 5.08L186.96 5.08L186.96 5.08Q187.14 5.17 187.49 5.20L187.49 5.20L187.49 5.20Q187.85 5.24 188.33 5.24L188.33 5.24L188.33 5.24Q189.04 5.24 189.94 5.17L189.94 5.17L189.94 5.17Q190.85 5.11 191.67 5.04L191.67 5.04L191.67 5.04Q192.50 4.97 193.13 4.91L193.13 4.91L193.13 4.91Q193.76 4.84 193.94 4.84L193.94 4.84L193.94 4.84Q194.46 4.84 194.69 5.23L194.69 5.23L194.69 5.23Q194.92 5.61 195.03 6.26L195.03 6.26L195.03 6.26Q194.67 6.23 194.31 6.21L194.31 6.21L194.31 6.21Q193.96 6.19 193.70 6.19L193.70 6.19L193.70 6.19Q193.26 6.19 192.80 6.22L192.80 6.22L192.80 6.22Q192.35 6.24 191.88 6.30L191.88 6.30L191.88 6.30Q191.69 6.71 191.45 7.26L191.45 7.26L191.45 7.26Q191.21 7.81 190.98 8.41L190.98 8.41L190.98 8.41Q190.75 9.02 190.54 9.61L190.54 9.61L190.54 9.61Q190.33 10.21 190.18 10.68L190.18 10.68L190.18 10.68Q189.87 11.61 189.64 12.39L189.64 12.39L189.64 12.39Q189.41 13.17 189.23 13.85L189.23 13.85L189.23 13.85Q189.06 14.53 188.93 15.15L188.93 15.15L188.93 15.15Q188.80 15.76 188.71 16.35L188.71 16.35L188.71 16.35Q187.77 16.21 187.14 15.18L187.14 15.18L187.14 15.18Q187.25 14.74 187.41 14.23L187.41 14.23L187.41 14.23Q187.57 13.72 187.79 13.07L187.79 13.07L187.79 13.07Q188.01 12.42 188.30 11.59L188.30 11.59L188.30 11.59Q188.59 10.77 188.97 9.72L188.97 9.72L188.97 9.72Q189.11 9.32 189.27 8.90L189.27 8.90L189.27 8.90Q189.42 8.47 189.57 8.05L189.57 8.05L189.57 8.05Q189.71 7.63 189.83 7.24L189.83 7.24L189.83 7.24Q189.95 6.85 190.04 6.52L190.04 6.52L190.04 6.52Q189.45 6.59 188.92 6.64L188.92 6.64L188.92 6.64Q188.40 6.69 187.99 6.69ZM205.62 10.35L205.62 10.35L205.62 10.35Q206.67 9.20 207.50 7.91L207.50 7.91L207.50 7.91Q208.33 6.62 209.05 5.01L209.05 5.01L209.05 5.01Q209.41 5.05 209.75 5.21L209.75 5.21L209.75 5.21Q210.08 5.36 210.28 5.56L210.28 5.56L210.28 5.56Q209.51 6.48 208.89 7.24L208.89 7.24L208.89 7.24Q208.26 7.99 207.75 8.66L207.75 8.66L207.75 8.66Q207.23 9.32 206.79 9.93L206.79 9.93L206.79 9.93Q206.35 10.54 205.93 11.16L205.93 11.16L205.93 11.16Q205.72 11.87 205.53 12.60L205.53 12.60L205.53 12.60Q205.35 13.33 205.21 13.99L205.21 13.99L205.21 13.99Q205.07 14.66 204.99 15.22L204.99 15.22L204.99 15.22Q204.92 15.79 204.92 16.20L204.92 16.20L204.92 16.20Q204.76 16.20 204.43 16.14L204.43 16.14L204.43 16.14Q204.09 16.07 203.74 15.99L203.74 15.99L203.74 15.99Q203.39 15.90 203.10 15.82L203.10 15.82L203.10 15.82Q202.82 15.74 202.76 15.68L202.76 15.68L202.76 15.68Q202.99 15.30 203.20 14.75L203.20 14.75L203.20 14.75Q203.42 14.20 203.63 13.59L203.63 13.59L203.63 13.59Q203.84 12.98 204.04 12.36L204.04 12.36L204.04 12.36Q204.23 11.73 204.40 11.20L204.40 11.20L204.40 11.20Q204.05 10.11 203.72 9.15L203.72 9.15L203.72 9.15Q203.39 8.19 203.08 7.41L203.08 7.41L203.08 7.41Q202.78 6.64 202.50 6.08L202.50 6.08L202.50 6.08Q202.22 5.52 201.96 5.22L201.96 5.22L201.96 5.22Q202.10 5.17 202.39 5.11L202.39 5.11L202.39 5.11Q202.68 5.05 203.02 5.00L203.02 5.00L203.02 5.00Q203.36 4.94 203.72 4.91L203.72 4.91L203.72 4.91Q204.08 4.87 204.36 4.86L204.36 4.86L204.36 4.86Q204.36 5.21 204.42 5.71L204.42 5.71L204.42 5.71Q204.48 6.22 204.59 6.79L204.59 6.79L204.59 6.79Q204.69 7.36 204.83 7.95L204.83 7.95L204.83 7.95Q204.97 8.54 205.11 9.03L205.11 9.03L205.11 9.03Q205.25 9.52 205.39 9.88L205.39 9.88L205.39 9.88Q205.52 10.23 205.62 10.35ZM227.00 16.24L227.00 16.24L227.00 16.24Q226.32 16.04 226.06 15.85L226.06 15.85L226.06 15.85Q225.81 15.65 225.81 15.36L225.81 15.36L225.81 15.36Q225.81 15.13 225.93 14.73L225.93 14.73L225.93 14.73Q226.06 14.32 226.30 13.77L226.30 13.77L226.30 13.77Q226.55 13.22 226.89 12.54L226.89 12.54L226.89 12.54Q227.23 11.87 227.67 11.10L227.67 11.10L227.67 11.10Q227.30 11.09 227.02 11.08L227.02 11.08L227.02 11.08Q226.73 11.07 226.55 11.07L226.55 11.07L226.55 11.07Q226.63 10.86 227.02 10.71L227.02 10.71L227.02 10.71Q227.42 10.56 228.06 10.44L228.06 10.44L228.06 10.44Q228.61 9.53 229.23 8.71L229.23 8.71L229.23 8.71Q229.85 7.88 230.48 7.19L230.48 7.19L230.48 7.19Q231.11 6.50 231.74 5.97L231.74 5.97L231.74 5.97Q232.37 5.45 232.95 5.14L232.95 5.14L232.95 5.14Q232.96 5.04 232.97 4.97L232.97 4.97L232.97 4.97Q232.97 4.90 232.97 4.87L232.97 4.87L232.97 4.87Q233.17 4.87 233.50 4.97L233.50 4.97L233.50 4.97Q233.83 5.07 234.14 5.21L234.14 5.21L234.14 5.21Q234.46 5.35 234.70 5.49L234.70 5.49L234.70 5.49Q234.95 5.64 234.98 5.74L234.98 5.74L234.98 5.74Q234.51 6.55 234.07 8.17L234.07 8.17L234.07 8.17Q233.62 9.79 233.32 12.04L233.32 12.04L233.32 12.04Q233.25 12.60 233.20 13.31L233.20 13.31L233.20 13.31Q233.16 14.03 233.16 14.91L233.16 14.91L233.16 14.91Q233.16 15.22 233.16 15.54L233.16 15.54L233.16 15.54Q233.16 15.86 233.18 16.21L233.18 16.21L233.18 16.21Q233.16 16.23 233.13 16.23L233.13 16.23L233.13 16.23Q233.10 16.23 233.02 16.23L233.02 16.23L233.02 16.23Q232.82 16.23 232.56 16.16L232.56 16.16L232.56 16.16Q232.30 16.10 232.06 16.01L232.06 16.01L232.06 16.01Q231.81 15.92 231.64 15.81L231.64 15.81L231.64 15.81Q231.46 15.69 231.42 15.61L231.42 15.61L231.42 15.61Q231.41 15.43 231.41 15.25L231.41 15.25L231.41 15.25Q231.41 15.08 231.41 14.88L231.41 14.88L231.41 14.88Q231.41 14.01 231.47 13.12L231.47 13.12L231.47 13.12Q231.53 12.22 231.69 11.27L231.69 11.27L231.69 11.27Q231.49 11.26 231.17 11.23L231.17 11.23L231.17 11.23Q230.85 11.21 230.45 11.20L230.45 11.20L230.45 11.20Q230.05 11.19 229.59 11.16L229.59 11.16L229.59 11.16Q229.14 11.14 228.70 11.13L228.70 11.13L228.70 11.13Q228.37 11.76 228.07 12.38L228.07 12.38L228.07 12.38Q227.78 13.01 227.57 13.64L227.57 13.64L227.57 13.64Q227.33 14.31 227.18 14.98L227.18 14.98L227.18 14.98Q227.04 15.65 227.00 16.24ZM232.40 7.83L232.40 7.83L232.40 7.83Q232.46 7.63 232.53 7.29L232.53 7.29L232.53 7.29Q232.61 6.94 232.68 6.57L232.68 6.57L232.68 6.57Q232.33 6.69 231.90 7.03L231.90 7.03L231.90 7.03Q231.48 7.36 231.02 7.86L231.02 7.86L231.02 7.86Q230.57 8.36 230.10 8.98L230.10 8.98L230.10 8.98Q229.63 9.60 229.19 10.30L229.19 10.30L229.19 10.30Q230.37 10.21 231.87 10.18L231.87 10.18L231.87 10.18Q231.98 9.59 232.11 9.01L232.11 9.01L232.11 9.01Q232.25 8.43 232.40 7.83ZM243.60 16.24L243.60 16.24L243.60 16.24Q242.80 16.00 242.52 15.79L242.52 15.79L242.52 15.79Q242.24 15.57 242.24 15.19L242.24 15.19L242.24 15.19Q242.24 14.77 242.44 14.01L242.44 14.01L242.44 14.01Q242.63 13.24 242.95 12.31L242.95 12.31L242.95 12.31Q243.26 11.37 243.67 10.35L243.67 10.35L243.67 10.35Q244.08 9.32 244.50 8.39L244.50 8.39L244.50 8.39Q244.92 7.45 245.31 6.67L245.31 6.67L245.31 6.67Q245.71 5.89 246.02 5.46L246.02 5.46L245.92 4.87L245.92 4.87Q246.12 4.87 246.47 4.97L246.47 4.97L246.47 4.97Q246.82 5.07 247.18 5.21L247.18 5.21L247.18 5.21Q247.53 5.35 247.81 5.49L247.81 5.49L247.81 5.49Q248.08 5.64 248.11 5.74L248.11 5.74L248.11 5.74Q248.04 6.08 248.00 6.76L248.00 6.76L248.00 6.76Q247.95 7.43 247.95 8.20L247.95 8.20L247.95 8.20Q247.95 9.73 248.07 11.19L248.07 11.19L248.07 11.19Q248.19 12.66 248.63 14.17L248.63 14.17L248.63 14.17Q248.85 13.05 249.11 11.94L249.11 11.94L249.11 11.94Q249.37 10.82 249.65 9.81L249.65 9.81L249.65 9.81Q249.93 8.79 250.21 7.92L250.21 7.92L250.21 7.92Q250.49 7.06 250.75 6.40L250.75 6.40L250.75 6.40Q251.01 5.75 251.23 5.38L251.23 5.38L251.23 5.38Q251.45 5.01 251.64 4.98L251.64 4.98L251.64 4.98Q251.79 5.01 251.97 5.10L251.97 5.10L251.97 5.10Q252.15 5.19 252.32 5.32L252.32 5.32L252.32 5.32Q252.49 5.45 252.63 5.60L252.63 5.60L252.63 5.60Q252.77 5.75 252.85 5.91L252.85 5.91L252.85 5.91Q252.41 6.09 251.96 6.76L251.96 6.76L251.96 6.76Q251.52 7.43 251.12 8.39L251.12 8.39L251.12 8.39Q250.73 9.35 250.38 10.47L250.38 10.47L250.38 10.47Q250.04 11.59 249.78 12.68L249.78 12.68L249.78 12.68Q249.52 13.76 249.37 14.69L249.37 14.69L249.37 14.69Q249.23 15.61 249.21 16.17L249.21 16.17L249.21 16.17Q249.21 16.20 249.23 16.21L249.23 16.21L249.23 16.21Q249.19 16.23 249.14 16.23L249.14 16.23L249.14 16.23Q249.09 16.23 249.05 16.23L249.05 16.23L249.05 16.23Q248.40 16.23 247.90 16.07L247.90 16.07L247.90 16.07Q247.41 15.90 247.25 15.61L247.25 15.61L247.25 15.61Q246.96 14.43 246.76 13.34L246.76 13.34L246.76 13.34Q246.57 12.25 246.43 11.16L246.43 11.16L246.43 11.16Q246.30 10.07 246.22 8.95L246.22 8.95L246.22 8.95Q246.15 7.84 246.11 6.62L246.11 6.62L246.11 6.62Q245.84 7.04 245.55 7.72L245.55 7.72L245.55 7.72Q245.25 8.40 244.97 9.21L244.97 9.21L244.97 9.21Q244.69 10.02 244.43 10.92L244.43 10.92L244.43 10.92Q244.17 11.82 243.98 12.67L243.98 12.67L243.98 12.67Q243.78 13.52 243.67 14.29L243.67 14.29L243.67 14.29Q243.56 15.05 243.56 15.61L243.56 15.61L243.56 15.61Q243.56 15.90 243.56 16.03L243.56 16.03L243.56 16.03Q243.57 16.16 243.60 16.24ZM259.85 14.45L259.85 14.45L259.85 14.45Q260.06 13.99 260.36 13.26L260.36 13.26L260.36 13.26Q260.65 12.53 260.97 11.68L260.97 11.68L260.97 11.68Q261.30 10.84 261.63 9.95L261.63 9.95L261.63 9.95Q261.97 9.06 262.26 8.26L262.26 8.26L262.26 8.26Q262.56 7.46 262.77 6.83L262.77 6.83L262.77 6.83Q262.99 6.20 263.09 5.87L263.09 5.87L263.09 5.87Q262.21 6.23 261.58 6.97L261.58 6.97L261.58 6.97Q260.95 7.71 260.62 8.83L260.62 8.83L260.62 8.83Q260.30 8.72 260.04 8.43L260.04 8.43L260.04 8.43Q259.77 8.15 259.69 7.71L259.69 7.71L259.69 7.71Q259.83 7.07 260.21 6.54L260.21 6.54L260.21 6.54Q260.60 6.01 261.18 5.63L261.18 5.63L261.18 5.63Q261.77 5.25 262.54 5.05L262.54 5.05L262.54 5.05Q263.31 4.84 264.19 4.84L264.19 4.84L264.19 4.84Q265.31 4.84 266.25 5.17L266.25 5.17L266.25 5.17Q267.19 5.50 267.86 6.09L267.86 6.09L267.86 6.09Q268.53 6.68 268.91 7.50L268.91 7.50L268.91 7.50Q269.29 8.33 269.29 9.34L269.29 9.34L269.29 9.34Q269.29 10.71 268.79 11.96L268.79 11.96L268.79 11.96Q268.28 13.20 267.42 14.15L267.42 14.15L267.42 14.15Q266.56 15.11 265.43 15.67L265.43 15.67L265.43 15.67Q264.29 16.24 263.05 16.24L263.05 16.24L263.05 16.24Q261.90 16.24 261.08 15.79L261.08 15.79L261.08 15.79Q260.26 15.33 259.85 14.45ZM264.80 5.54L264.80 5.54L264.80 5.54Q264.10 5.54 263.47 5.74L263.47 5.74L263.47 5.74Q264.08 5.96 264.49 6.21L264.49 6.21L264.49 6.21Q264.89 6.45 265.05 6.59L265.05 6.59L265.05 6.59Q264.94 6.75 264.72 7.14L264.72 7.14L264.72 7.14Q264.50 7.53 264.21 8.09L264.21 8.09L264.21 8.09Q263.93 8.65 263.61 9.32L263.61 9.32L263.61 9.32Q263.28 9.98 262.98 10.68L262.98 10.68L262.98 10.68Q262.18 12.46 261.82 13.48L261.82 13.48L261.82 13.48Q261.46 14.50 261.46 14.90L261.46 14.90L261.46 14.90Q261.66 14.97 261.94 14.99L261.94 14.99L261.94 14.99Q262.22 15.02 262.54 15.02L262.54 15.02L262.54 15.02Q263.68 15.02 264.69 14.50L264.69 14.50L264.69 14.50Q265.71 13.97 266.47 13.09L266.47 13.09L266.47 13.09Q267.23 12.21 267.67 11.04L267.67 11.04L267.67 11.04Q268.11 9.87 268.11 8.58L268.11 8.58L268.11 8.58Q268.11 7.14 267.22 6.34L267.22 6.34L267.22 6.34Q266.32 5.54 264.80 5.54ZM288.08 14.45L288.08 14.45L288.08 14.45Q288.29 13.99 288.58 13.26L288.58 13.26L288.58 13.26Q288.88 12.53 289.20 11.68L289.20 11.68L289.20 11.68Q289.52 10.84 289.86 9.95L289.86 9.95L289.86 9.95Q290.19 9.06 290.49 8.26L290.49 8.26L290.49 8.26Q290.78 7.46 291.00 6.83L291.00 6.83L291.00 6.83Q291.21 6.20 291.31 5.87L291.31 5.87L291.31 5.87Q290.43 6.23 289.80 6.97L289.80 6.97L289.80 6.97Q289.17 7.71 288.85 8.83L288.85 8.83L288.85 8.83Q288.53 8.72 288.26 8.43L288.26 8.43L288.26 8.43Q287.99 8.15 287.91 7.71L287.91 7.71L287.91 7.71Q288.05 7.07 288.43 6.54L288.43 6.54L288.43 6.54Q288.82 6.01 289.41 5.63L289.41 5.63L289.41 5.63Q290.00 5.25 290.77 5.05L290.77 5.05L290.77 5.05Q291.54 4.84 292.42 4.84L292.42 4.84L292.42 4.84Q293.54 4.84 294.48 5.17L294.48 5.17L294.48 5.17Q295.41 5.50 296.09 6.09L296.09 6.09L296.09 6.09Q296.76 6.68 297.14 7.50L297.14 7.50L297.14 7.50Q297.51 8.33 297.51 9.34L297.51 9.34L297.51 9.34Q297.51 10.71 297.01 11.96L297.01 11.96L297.01 11.96Q296.51 13.20 295.64 14.15L295.64 14.15L295.64 14.15Q294.78 15.11 293.65 15.67L293.65 15.67L293.65 15.67Q292.52 16.24 291.27 16.24L291.27 16.24L291.27 16.24Q290.12 16.24 289.30 15.79L289.30 15.79L289.30 15.79Q288.48 15.33 288.08 14.45ZM293.02 5.54L293.02 5.54L293.02 5.54Q292.32 5.54 291.69 5.74L291.69 5.74L291.69 5.74Q292.31 5.96 292.71 6.21L292.71 6.21L292.71 6.21Q293.12 6.45 293.27 6.59L293.27 6.59L293.27 6.59Q293.16 6.75 292.94 7.14L292.94 7.14L292.94 7.14Q292.73 7.53 292.44 8.09L292.44 8.09L292.44 8.09Q292.15 8.65 291.83 9.32L291.83 9.32L291.83 9.32Q291.51 9.98 291.20 10.68L291.20 10.68L291.20 10.68Q290.40 12.46 290.04 13.48L290.04 13.48L290.04 13.48Q289.69 14.50 289.69 14.90L289.69 14.90L289.69 14.90Q289.88 14.97 290.16 14.99L290.16 14.99L290.16 14.99Q290.44 15.02 290.77 15.02L290.77 15.02L290.77 15.02Q291.90 15.02 292.91 14.50L292.91 14.50L292.91 14.50Q293.93 13.97 294.69 13.09L294.69 13.09L294.69 13.09Q295.46 12.21 295.90 11.04L295.90 11.04L295.90 11.04Q296.34 9.87 296.34 8.58L296.34 8.58L296.34 8.58Q296.34 7.14 295.44 6.34L295.44 6.34L295.44 6.34Q294.55 5.54 293.02 5.54ZM314.55 7.46L314.55 7.46L314.55 7.46Q314.55 8.13 314.25 8.73L314.25 8.73L314.25 8.73Q313.95 9.32 313.42 9.79L313.42 9.79L313.42 9.79Q312.89 10.26 312.17 10.58L312.17 10.58L312.17 10.58Q311.46 10.91 310.62 11.02L310.62 11.02L310.62 11.02Q310.83 11.65 311.13 12.31L311.13 12.31L311.13 12.31Q311.43 12.98 311.78 13.59L311.78 13.59L311.78 13.59Q312.13 14.21 312.51 14.73L312.51 14.73L312.51 14.73Q312.89 15.25 313.25 15.58L313.25 15.58L313.25 15.58Q313.18 15.72 313.05 15.86L313.05 15.86L313.05 15.86Q312.91 16.00 312.74 16.12L312.74 16.12L312.74 16.12Q312.56 16.24 312.37 16.32L312.37 16.32L312.37 16.32Q312.19 16.39 312.02 16.39L312.02 16.39L312.02 16.39Q311.71 16.39 311.43 16.10L311.43 16.10L311.43 16.10Q311.15 15.81 310.86 15.17L310.86 15.17L310.86 15.17Q310.58 14.53 310.26 13.52L310.26 13.52L310.26 13.52Q309.95 12.50 309.57 11.07L309.57 11.07L309.57 11.07Q309.41 11.07 309.26 11.07L309.26 11.07L309.26 11.07Q309.11 11.07 309.02 11.05L309.02 11.05L309.02 11.05Q308.92 10.99 308.81 10.85L308.81 10.85L308.81 10.85Q308.43 11.66 308.14 12.38L308.14 12.38L308.14 12.38Q307.85 13.09 307.61 13.76L307.61 13.76L307.61 13.76Q307.38 14.42 307.21 15.04L307.21 15.04L307.21 15.04Q307.03 15.67 306.91 16.31L306.91 16.31L306.91 16.31Q306.43 16.20 306.08 15.90L306.08 15.90L306.08 15.90Q305.73 15.61 305.42 15.08L305.42 15.08L305.42 15.08Q305.48 14.95 305.54 14.83L305.54 14.83L305.54 14.83Q305.61 14.71 305.70 14.50L305.70 14.50L305.70 14.50Q305.80 14.28 305.95 13.94L305.95 13.94L305.95 13.94Q306.10 13.61 306.34 13.05L306.34 13.05L306.34 13.05Q306.59 12.49 306.93 11.68L306.93 11.68L306.93 11.68Q307.27 10.86 307.76 9.70L307.76 9.70L307.76 9.70Q307.99 9.18 308.15 8.79L308.15 8.79L308.15 8.79Q308.31 8.40 308.43 8.04L308.43 8.04L308.43 8.04Q308.56 7.69 308.66 7.33L308.66 7.33L308.66 7.33Q308.77 6.97 308.88 6.51L308.88 6.51L308.88 6.51Q308.24 6.73 307.68 7.01L307.68 7.01L307.68 7.01Q307.13 7.28 306.77 7.59L306.77 7.59L306.77 7.59Q306.64 7.50 306.51 7.34L306.51 7.34L306.51 7.34Q306.38 7.17 306.26 6.96L306.26 6.96L306.26 6.96Q306.15 6.76 306.07 6.55L306.07 6.55L306.07 6.55Q305.98 6.34 305.97 6.17L305.97 6.17L305.97 6.17Q306.39 5.89 307.00 5.66L307.00 5.66L307.00 5.66Q307.61 5.42 308.29 5.24L308.29 5.24L308.29 5.24Q308.98 5.07 309.69 4.97L309.69 4.97L309.69 4.97Q310.41 4.87 311.02 4.87L311.02 4.87L311.02 4.87Q312.70 4.87 313.63 5.56L313.63 5.56L313.63 5.56Q314.55 6.26 314.55 7.46ZM310.97 6.02L311.14 6.29L311.14 6.29Q311.04 6.41 310.83 6.79L310.83 6.79L310.83 6.79Q310.62 7.17 310.34 7.69L310.34 7.69L310.34 7.69Q310.07 8.22 309.77 8.83L309.77 8.83L309.77 8.83Q309.47 9.45 309.19 10.05L309.19 10.05L309.19 10.05Q310.24 10.05 311.12 9.86L311.12 9.86L311.12 9.86Q312.00 9.66 312.65 9.30L312.65 9.30L312.65 9.30Q313.29 8.95 313.65 8.46L313.65 8.46L313.65 8.46Q314.01 7.98 314.01 7.39L314.01 7.39L314.01 7.39Q314.01 6.69 313.50 6.32L313.50 6.32L313.50 6.32Q313.00 5.95 311.95 5.95L311.95 5.95L311.95 5.95Q311.71 5.95 311.47 5.97L311.47 5.97L311.47 5.97Q311.23 5.99 310.97 6.02L310.97 6.02ZM322.13 14.38L322.13 14.38L322.13 14.38Q322.13 13.87 322.29 13.07L322.29 13.07L322.29 13.07Q322.45 12.26 322.71 11.33L322.71 11.33L322.71 11.33Q322.97 10.40 323.30 9.43L323.30 9.43L323.30 9.43Q323.64 8.46 323.99 7.60L323.99 7.60L323.99 7.60Q324.34 6.75 324.67 6.10L324.67 6.10L324.67 6.10Q325.01 5.46 325.28 5.18L325.28 5.18L325.28 5.18Q325.42 5.19 325.65 5.29L325.65 5.29L325.65 5.29Q325.88 5.38 326.12 5.50L326.12 5.50L326.12 5.50Q326.35 5.63 326.55 5.78L326.55 5.78L326.55 5.78Q326.75 5.92 326.80 6.05L326.80 6.05L326.80 6.05Q326.40 6.41 326.00 7.15L326.00 7.15L326.00 7.15Q325.60 7.88 325.23 8.82L325.23 8.82L325.23 8.82Q324.86 9.76 324.53 10.80L324.53 10.80L324.53 10.80Q324.21 11.84 323.97 12.82L323.97 12.82L323.97 12.82Q323.74 13.80 323.60 14.64L323.60 14.64L323.60 14.64Q323.47 15.48 323.47 16.00L323.47 16.00L323.47 16.00Q323.47 16.24 323.51 16.30L323.51 16.30L323.51 16.30Q323.20 16.28 323.06 16.19L323.06 16.19L323.06 16.19Q322.92 16.10 322.85 16.00L322.85 16.00L322.85 16.00Q322.77 15.89 322.71 15.79L322.71 15.79L322.71 15.79Q322.64 15.68 322.52 15.62L322.52 15.62L322.52 15.62Q322.42 15.58 322.35 15.43L322.35 15.43L322.35 15.43Q322.28 15.27 322.23 15.09L322.23 15.09L322.23 15.09Q322.18 14.90 322.15 14.70L322.15 14.70L322.15 14.70Q322.13 14.50 322.13 14.38ZM342.65 7.63L342.65 7.63L342.65 7.63Q342.65 8.40 342.26 9.10L342.26 9.10L342.26 9.10Q341.88 9.80 341.23 10.32L341.23 10.32L341.23 10.32Q340.58 10.85 339.70 11.16L339.70 11.16L339.70 11.16Q338.83 11.47 337.85 11.47L337.85 11.47L337.85 11.47Q337.50 11.47 337.29 11.38L337.29 11.38L337.29 11.38Q337.09 11.28 336.84 11.02L336.84 11.02L336.84 11.02Q336.14 12.54 335.70 13.82L335.70 13.82L335.70 13.82Q335.26 15.11 335.01 16.31L335.01 16.31L335.01 16.31Q334.47 16.18 334.14 15.87L334.14 15.87L334.14 15.87Q333.80 15.55 333.52 15.08L333.52 15.08L333.52 15.08Q333.66 14.81 333.86 14.38L333.86 14.38L333.86 14.38Q334.05 13.94 334.33 13.31L334.33 13.31L334.33 13.31Q334.61 12.67 334.98 11.78L334.98 11.78L334.98 11.78Q335.36 10.89 335.86 9.70L335.86 9.70L335.86 9.70Q336.08 9.16 336.25 8.75L336.25 8.75L336.25 8.75Q336.42 8.34 336.55 7.99L336.55 7.99L336.55 7.99Q336.67 7.63 336.78 7.28L336.78 7.28L336.78 7.28Q336.88 6.93 336.99 6.51L336.99 6.51L336.99 6.51Q336.34 6.72 335.78 7L335.78 7L335.78 7Q335.23 7.28 334.87 7.59L334.87 7.59L334.87 7.59Q334.74 7.50 334.61 7.34L334.61 7.34L334.61 7.34Q334.47 7.17 334.36 6.96L334.36 6.96L334.36 6.96Q334.25 6.76 334.17 6.55L334.17 6.55L334.17 6.55Q334.08 6.34 334.07 6.17L334.07 6.17L334.07 6.17Q334.47 5.89 335.08 5.66L335.08 5.66L335.08 5.66Q335.68 5.42 336.36 5.24L336.36 5.24L336.36 5.24Q337.05 5.07 337.78 4.97L337.78 4.97L337.78 4.97Q338.52 4.87 339.19 4.87L339.19 4.87L339.19 4.87Q339.99 4.87 340.63 5.07L340.63 5.07L340.63 5.07Q341.28 5.28 341.73 5.64L341.73 5.64L341.73 5.64Q342.17 6.01 342.41 6.51L342.41 6.51L342.41 6.51Q342.65 7.01 342.65 7.63ZM340.16 5.95L340.16 5.95L340.16 5.95Q339.63 5.95 339.07 6.03L339.07 6.03L339.23 6.29L339.23 6.29Q339.09 6.47 338.88 6.83L338.88 6.83L338.88 6.83Q338.67 7.20 338.42 7.71L338.42 7.71L338.42 7.71Q338.17 8.22 337.87 8.85L337.87 8.85L337.87 8.85Q337.57 9.48 337.23 10.18L337.23 10.18L337.23 10.18Q338.32 10.18 339.22 9.97L339.22 9.97L339.22 9.97Q340.12 9.77 340.75 9.41L340.75 9.41L340.75 9.41Q341.39 9.06 341.75 8.58L341.75 8.58L341.75 8.58Q342.10 8.11 342.10 7.56L342.10 7.56L342.10 7.56Q342.10 6.83 341.61 6.39L341.61 6.39L341.61 6.39Q341.12 5.95 340.16 5.95ZM360.37 14.45L360.37 14.45L360.37 14.45Q360.58 13.99 360.88 13.26L360.88 13.26L360.88 13.26Q361.17 12.53 361.49 11.68L361.49 11.68L361.49 11.68Q361.82 10.84 362.15 9.95L362.15 9.95L362.15 9.95Q362.49 9.06 362.78 8.26L362.78 8.26L362.78 8.26Q363.08 7.46 363.29 6.83L363.29 6.83L363.29 6.83Q363.51 6.20 363.61 5.87L363.61 5.87L363.61 5.87Q362.73 6.23 362.10 6.97L362.10 6.97L362.10 6.97Q361.47 7.71 361.14 8.83L361.14 8.83L361.14 8.83Q360.82 8.72 360.56 8.43L360.56 8.43L360.56 8.43Q360.29 8.15 360.21 7.71L360.21 7.71L360.21 7.71Q360.35 7.07 360.73 6.54L360.73 6.54L360.73 6.54Q361.12 6.01 361.70 5.63L361.70 5.63L361.70 5.63Q362.29 5.25 363.06 5.05L363.06 5.05L363.06 5.05Q363.83 4.84 364.71 4.84L364.71 4.84L364.71 4.84Q365.83 4.84 366.77 5.17L366.77 5.17L366.77 5.17Q367.71 5.50 368.38 6.09L368.38 6.09L368.38 6.09Q369.05 6.68 369.43 7.50L369.43 7.50L369.43 7.50Q369.81 8.33 369.81 9.34L369.81 9.34L369.81 9.34Q369.81 10.71 369.31 11.96L369.31 11.96L369.31 11.96Q368.80 13.20 367.94 14.15L367.94 14.15L367.94 14.15Q367.08 15.11 365.95 15.67L365.95 15.67L365.95 15.67Q364.81 16.24 363.57 16.24L363.57 16.24L363.57 16.24Q362.42 16.24 361.60 15.79L361.60 15.79L361.60 15.79Q360.78 15.33 360.37 14.45ZM365.32 5.54L365.32 5.54L365.32 5.54Q364.62 5.54 363.99 5.74L363.99 5.74L363.99 5.74Q364.60 5.96 365.01 6.21L365.01 6.21L365.01 6.21Q365.41 6.45 365.57 6.59L365.57 6.59L365.57 6.59Q365.46 6.75 365.24 7.14L365.24 7.14L365.24 7.14Q365.02 7.53 364.73 8.09L364.73 8.09L364.73 8.09Q364.45 8.65 364.13 9.32L364.13 9.32L364.13 9.32Q363.80 9.98 363.50 10.68L363.50 10.68L363.50 10.68Q362.70 12.46 362.34 13.48L362.34 13.48L362.34 13.48Q361.98 14.50 361.98 14.90L361.98 14.90L361.98 14.90Q362.18 14.97 362.46 14.99L362.46 14.99L362.46 14.99Q362.74 15.02 363.06 15.02L363.06 15.02L363.06 15.02Q364.20 15.02 365.21 14.50L365.21 14.50L365.21 14.50Q366.23 13.97 366.99 13.09L366.99 13.09L366.99 13.09Q367.75 12.21 368.19 11.04L368.19 11.04L368.19 11.04Q368.63 9.87 368.63 8.58L368.63 8.58L368.63 8.58Q368.63 7.14 367.74 6.34L367.74 6.34L367.74 6.34Q366.84 5.54 365.32 5.54ZM377.75 14.38L377.75 14.38L377.75 14.38Q377.75 13.87 377.91 13.07L377.91 13.07L377.91 13.07Q378.07 12.26 378.33 11.33L378.33 11.33L378.33 11.33Q378.59 10.40 378.92 9.43L378.92 9.43L378.92 9.43Q379.26 8.46 379.61 7.60L379.61 7.60L379.61 7.60Q379.96 6.75 380.30 6.10L380.30 6.10L380.30 6.10Q380.63 5.46 380.90 5.18L380.90 5.18L380.90 5.18Q381.04 5.19 381.27 5.29L381.27 5.29L381.27 5.29Q381.50 5.38 381.74 5.50L381.74 5.50L381.74 5.50Q381.98 5.63 382.17 5.78L382.17 5.78L382.17 5.78Q382.37 5.92 382.42 6.05L382.42 6.05L382.42 6.05Q382.02 6.41 381.62 7.15L381.62 7.15L381.62 7.15Q381.22 7.88 380.85 8.82L380.85 8.82L380.85 8.82Q380.48 9.76 380.16 10.80L380.16 10.80L380.16 10.80Q379.83 11.84 379.60 12.82L379.60 12.82L379.60 12.82Q379.36 13.80 379.22 14.64L379.22 14.64L379.22 14.64Q379.09 15.48 379.09 16.00L379.09 16.00L379.09 16.00Q379.09 16.24 379.13 16.30L379.13 16.30L379.13 16.30Q378.83 16.28 378.69 16.19L378.69 16.19L378.69 16.19Q378.55 16.10 378.47 16.00L378.47 16.00L378.47 16.00Q378.39 15.89 378.33 15.79L378.33 15.79L378.33 15.79Q378.27 15.68 378.14 15.62L378.14 15.62L378.14 15.62Q378.04 15.58 377.97 15.43L377.97 15.43L377.97 15.43Q377.90 15.27 377.85 15.09L377.85 15.09L377.85 15.09Q377.80 14.90 377.78 14.70L377.78 14.70L377.78 14.70Q377.75 14.50 377.75 14.38ZM394.60 9.34L394.60 9.34L394.60 9.34Q395.05 9.34 395.31 9.59L395.31 9.59L395.31 9.59Q395.57 9.84 395.57 10.29L395.57 10.29L395.57 10.29Q395.57 10.40 395.56 10.52L395.56 10.52L395.56 10.52Q395.54 10.64 395.50 10.72L395.50 10.72L395.50 10.72Q395.32 10.70 395.09 10.68L395.09 10.68L395.09 10.68Q394.87 10.65 394.56 10.65L394.56 10.65L394.56 10.65Q393.93 10.65 393.30 10.77L393.30 10.77L393.30 10.77Q392.67 10.88 392.10 10.95L392.10 10.95L392.10 10.95Q391.47 12.43 391.06 13.73L391.06 13.73L391.06 13.73Q390.66 15.04 390.43 16.31L390.43 16.31L390.43 16.31Q389.96 16.20 389.59 15.90L389.59 15.90L389.59 15.90Q389.23 15.61 388.91 15.08L388.91 15.08L388.91 15.08Q389.00 14.85 389.14 14.54L389.14 14.54L389.14 14.54Q389.28 14.22 389.48 13.74L389.48 13.74L389.48 13.74Q389.68 13.26 389.95 12.56L389.95 12.56L389.95 12.56Q390.22 11.87 390.60 10.91L390.60 10.91L390.60 10.91Q390.01 10.71 389.83 10.22L389.83 10.22L389.83 10.22Q389.90 10.15 390.22 10.06L390.22 10.06L390.22 10.06Q390.54 9.97 391.01 9.86L391.01 9.86L391.01 9.86Q391.22 9.31 391.37 8.88L391.37 8.88L391.37 8.88Q391.52 8.46 391.65 8.07L391.65 8.07L391.65 8.07Q391.78 7.69 391.88 7.32L391.88 7.32L391.88 7.32Q391.99 6.94 392.07 6.52L392.07 6.52L392.00 6.52L392.00 6.52Q391.47 6.52 391.14 6.27L391.14 6.27L391.14 6.27Q390.81 6.02 390.81 5.61L390.81 5.61L390.81 5.61Q390.81 5.50 390.84 5.35L390.84 5.35L390.84 5.35Q390.88 5.19 390.94 5.08L390.94 5.08L390.94 5.08Q391.20 5.12 391.46 5.14L391.46 5.14L391.46 5.14Q391.72 5.15 392.14 5.15L392.14 5.15L392.14 5.15Q393.02 5.15 393.79 5.10L393.79 5.10L393.79 5.10Q394.56 5.05 395.18 5.00L395.18 5.00L395.18 5.00Q395.81 4.94 396.26 4.89L396.26 4.89L396.26 4.89Q396.70 4.84 396.94 4.84L396.94 4.84L396.94 4.84Q397.26 4.84 397.52 5.18L397.52 5.18L397.52 5.18Q397.77 5.52 397.91 6.13L397.91 6.13L397.91 6.13Q397.46 6.09 397.19 6.08L397.19 6.08L397.19 6.08Q396.91 6.06 396.70 6.06L396.70 6.06L396.70 6.06Q395.99 6.06 395.39 6.13L395.39 6.13L395.39 6.13Q394.80 6.19 394.27 6.27L394.27 6.27L394.27 6.27Q394.18 6.40 394.08 6.59L394.08 6.59L394.08 6.59Q393.97 6.79 393.81 7.15L393.81 7.15L393.81 7.15Q393.64 7.50 393.38 8.08L393.38 8.08L393.38 8.08Q393.12 8.65 392.73 9.53L392.73 9.53L392.73 9.53Q393.27 9.45 393.77 9.39L393.77 9.39L393.77 9.39Q394.27 9.34 394.60 9.34ZM409.32 9.34L409.32 9.34L409.32 9.34Q409.77 9.34 410.02 9.59L410.02 9.59L410.02 9.59Q410.28 9.84 410.28 10.29L410.28 10.29L410.28 10.29Q410.28 10.40 410.27 10.52L410.27 10.52L410.27 10.52Q410.26 10.64 410.21 10.72L410.21 10.72L410.21 10.72Q410.03 10.70 409.81 10.68L409.81 10.68L409.81 10.68Q409.58 10.65 409.28 10.65L409.28 10.65L409.28 10.65Q408.65 10.65 408.02 10.77L408.02 10.77L408.02 10.77Q407.39 10.88 406.81 10.95L406.81 10.95L406.81 10.95Q406.18 12.43 405.78 13.73L405.78 13.73L405.78 13.73Q405.37 15.04 405.15 16.31L405.15 16.31L405.15 16.31Q404.67 16.20 404.31 15.90L404.31 15.90L404.31 15.90Q403.94 15.61 403.62 15.08L403.62 15.08L403.62 15.08Q403.72 14.85 403.86 14.54L403.86 14.54L403.86 14.54Q404.00 14.22 404.19 13.74L404.19 13.74L404.19 13.74Q404.39 13.26 404.66 12.56L404.66 12.56L404.66 12.56Q404.94 11.87 405.31 10.91L405.31 10.91L405.31 10.91Q404.73 10.71 404.54 10.22L404.54 10.22L404.54 10.22Q404.61 10.15 404.94 10.06L404.94 10.06L404.94 10.06Q405.26 9.97 405.72 9.86L405.72 9.86L405.72 9.86Q405.93 9.31 406.08 8.88L406.08 8.88L406.08 8.88Q406.24 8.46 406.36 8.07L406.36 8.07L406.36 8.07Q406.49 7.69 406.59 7.32L406.59 7.32L406.59 7.32Q406.70 6.94 406.78 6.52L406.78 6.52L406.71 6.52L406.71 6.52Q406.18 6.52 405.85 6.27L405.85 6.27L405.85 6.27Q405.52 6.02 405.52 5.61L405.52 5.61L405.52 5.61Q405.52 5.50 405.56 5.35L405.56 5.35L405.56 5.35Q405.59 5.19 405.65 5.08L405.65 5.08L405.65 5.08Q405.92 5.12 406.17 5.14L406.17 5.14L406.17 5.14Q406.43 5.15 406.85 5.15L406.85 5.15L406.85 5.15Q407.74 5.15 408.51 5.10L408.51 5.10L408.51 5.10Q409.28 5.05 409.90 5.00L409.90 5.00L409.90 5.00Q410.52 4.94 410.97 4.89L410.97 4.89L410.97 4.89Q411.42 4.84 411.66 4.84L411.66 4.84L411.66 4.84Q411.98 4.84 412.23 5.18L412.23 5.18L412.23 5.18Q412.48 5.52 412.62 6.13L412.62 6.13L412.62 6.13Q412.17 6.09 411.90 6.08L411.90 6.08L411.90 6.08Q411.63 6.06 411.42 6.06L411.42 6.06L411.42 6.06Q410.70 6.06 410.11 6.13L410.11 6.13L410.11 6.13Q409.51 6.19 408.98 6.27L408.98 6.27L408.98 6.27Q408.90 6.40 408.79 6.59L408.79 6.59L408.79 6.59Q408.69 6.79 408.52 7.15L408.52 7.15L408.52 7.15Q408.35 7.50 408.09 8.08L408.09 8.08L408.09 8.08Q407.83 8.65 407.44 9.53L407.44 9.53L407.44 9.53Q407.99 9.45 408.48 9.39L408.48 9.39L408.48 9.39Q408.98 9.34 409.32 9.34ZM423.95 9.21L423.95 9.21L423.95 9.21Q424.41 9.21 424.67 9.46L424.67 9.46L424.67 9.46Q424.93 9.72 424.93 10.16L424.93 10.16L424.93 10.16Q424.93 10.28 424.91 10.39L424.91 10.39L424.91 10.39Q424.89 10.51 424.86 10.60L424.86 10.60L424.86 10.60Q424.68 10.57 424.45 10.55L424.45 10.55L424.45 10.55Q424.23 10.53 423.92 10.53L423.92 10.53L423.92 10.53Q423.32 10.53 422.70 10.63L422.70 10.63L422.70 10.63Q422.09 10.74 421.53 10.81L421.53 10.81L421.53 10.81Q421.20 11.55 420.94 12.24L420.94 12.24L420.94 12.24Q420.67 12.94 420.48 13.51L420.48 13.51L420.48 13.51Q420.29 14.08 420.19 14.50L420.19 14.50L420.19 14.50Q420.08 14.92 420.07 15.13L420.07 15.13L420.07 15.13Q421.20 14.90 422.36 14.73L422.36 14.73L422.36 14.73Q423.51 14.56 424.79 14.48L424.79 14.48L424.79 14.48Q424.94 14.71 425.05 14.99L425.05 14.99L425.05 14.99Q425.15 15.27 425.15 15.60L425.15 15.60L425.15 15.60Q425.15 15.68 425.15 15.78L425.15 15.78L425.15 15.78Q425.15 15.88 425.12 15.97L425.12 15.97L425.12 15.97Q424.73 15.96 424.30 15.95L424.30 15.95L424.30 15.95Q423.86 15.95 423.16 15.95L423.16 15.95L423.16 15.95Q422.70 15.95 422.29 15.97L422.29 15.97L422.29 15.97Q421.88 15.99 421.46 16.03L421.46 16.03L421.46 16.03Q421.04 16.07 420.57 16.14L420.57 16.14L420.57 16.14Q420.10 16.21 419.51 16.31L419.51 16.31L419.51 16.31Q418.87 16.06 418.26 15.08L418.26 15.08L418.26 15.08Q418.50 14.57 418.93 13.54L418.93 13.54L418.93 13.54Q419.36 12.52 420.01 10.79L420.01 10.79L420.01 10.79Q419.38 10.60 419.19 10.09L419.19 10.09L419.19 10.09Q419.26 10.02 419.59 9.92L419.59 9.92L419.59 9.92Q419.93 9.81 420.42 9.70L420.42 9.70L420.42 9.70Q420.63 9.16 420.78 8.75L420.78 8.75L420.78 8.75Q420.92 8.34 421.04 7.99L421.04 7.99L421.04 7.99Q421.15 7.63 421.24 7.29L421.24 7.29L421.24 7.29Q421.33 6.94 421.41 6.54L421.41 6.54L421.41 6.54Q420.92 6.51 420.64 6.27L420.64 6.27L420.64 6.27Q420.36 6.02 420.36 5.63L420.36 5.63L420.36 5.63Q420.36 5.52 420.40 5.36L420.40 5.36L420.40 5.36Q420.43 5.21 420.48 5.10L420.48 5.10L420.48 5.10Q420.76 5.14 421.01 5.15L421.01 5.15L421.01 5.15Q421.27 5.17 421.69 5.17L421.69 5.17L421.69 5.17Q422.58 5.17 423.35 5.12L423.35 5.12L423.35 5.12Q424.12 5.07 424.74 5.01L424.74 5.01L424.74 5.01Q425.36 4.96 425.81 4.91L425.81 4.91L425.81 4.91Q426.26 4.86 426.50 4.86L426.50 4.86L426.50 4.86Q426.82 4.86 427.07 5.19L427.07 5.19L427.07 5.19Q427.32 5.53 427.45 6.15L427.45 6.15L427.45 6.15Q427.01 6.10 426.74 6.09L426.74 6.09L426.74 6.09Q426.47 6.08 426.26 6.08L426.26 6.08L426.26 6.08Q425.49 6.08 424.85 6.15L424.85 6.15L424.85 6.15Q424.21 6.23 423.63 6.31L423.63 6.31L423.63 6.31Q423.54 6.44 423.44 6.64L423.44 6.64L423.44 6.64Q423.33 6.83 423.16 7.18L423.16 7.18L423.16 7.18Q423.00 7.53 422.75 8.06L422.75 8.06L422.75 8.06Q422.51 8.60 422.16 9.39L422.16 9.39L422.16 9.39Q422.69 9.31 423.16 9.26L423.16 9.26L423.16 9.26Q423.63 9.21 423.95 9.21ZM443.21 7.46L443.21 7.46L443.21 7.46Q443.21 8.13 442.91 8.73L442.91 8.73L442.91 8.73Q442.61 9.32 442.08 9.79L442.08 9.79L442.08 9.79Q441.55 10.26 440.83 10.58L440.83 10.58L440.83 10.58Q440.12 10.91 439.28 11.02L439.28 11.02L439.28 11.02Q439.49 11.65 439.79 12.31L439.79 12.31L439.79 12.31Q440.09 12.98 440.44 13.59L440.44 13.59L440.44 13.59Q440.79 14.21 441.17 14.73L441.17 14.73L441.17 14.73Q441.55 15.25 441.91 15.58L441.91 15.58L441.91 15.58Q441.84 15.72 441.71 15.86L441.71 15.86L441.71 15.86Q441.57 16.00 441.40 16.12L441.40 16.12L441.40 16.12Q441.22 16.24 441.03 16.32L441.03 16.32L441.03 16.32Q440.85 16.39 440.68 16.39L440.68 16.39L440.68 16.39Q440.37 16.39 440.09 16.10L440.09 16.10L440.09 16.10Q439.81 15.81 439.52 15.17L439.52 15.17L439.52 15.17Q439.24 14.53 438.92 13.52L438.92 13.52L438.92 13.52Q438.61 12.50 438.23 11.07L438.23 11.07L438.23 11.07Q438.07 11.07 437.92 11.07L437.92 11.07L437.92 11.07Q437.77 11.07 437.68 11.05L437.68 11.05L437.68 11.05Q437.58 10.99 437.47 10.85L437.47 10.85L437.47 10.85Q437.09 11.66 436.80 12.38L436.80 12.38L436.80 12.38Q436.51 13.09 436.27 13.76L436.27 13.76L436.27 13.76Q436.04 14.42 435.87 15.04L435.87 15.04L435.87 15.04Q435.69 15.67 435.57 16.31L435.57 16.31L435.57 16.31Q435.09 16.20 434.74 15.90L434.74 15.90L434.74 15.90Q434.39 15.61 434.08 15.08L434.08 15.08L434.08 15.08Q434.14 14.95 434.20 14.83L434.20 14.83L434.20 14.83Q434.27 14.71 434.36 14.50L434.36 14.50L434.36 14.50Q434.46 14.28 434.61 13.94L434.61 13.94L434.61 13.94Q434.76 13.61 435.00 13.05L435.00 13.05L435.00 13.05Q435.25 12.49 435.59 11.68L435.59 11.68L435.59 11.68Q435.93 10.86 436.42 9.70L436.42 9.70L436.42 9.70Q436.65 9.18 436.81 8.79L436.81 8.79L436.81 8.79Q436.97 8.40 437.09 8.04L437.09 8.04L437.09 8.04Q437.22 7.69 437.32 7.33L437.32 7.33L437.32 7.33Q437.43 6.97 437.54 6.51L437.54 6.51L437.54 6.51Q436.90 6.73 436.34 7.01L436.34 7.01L436.34 7.01Q435.79 7.28 435.43 7.59L435.43 7.59L435.43 7.59Q435.30 7.50 435.17 7.34L435.17 7.34L435.17 7.34Q435.04 7.17 434.92 6.96L434.92 6.96L434.92 6.96Q434.81 6.76 434.73 6.55L434.73 6.55L434.73 6.55Q434.64 6.34 434.63 6.17L434.63 6.17L434.63 6.17Q435.05 5.89 435.66 5.66L435.66 5.66L435.66 5.66Q436.27 5.42 436.95 5.24L436.95 5.24L436.95 5.24Q437.64 5.07 438.35 4.97L438.35 4.97L438.35 4.97Q439.07 4.87 439.68 4.87L439.68 4.87L439.68 4.87Q441.36 4.87 442.29 5.56L442.29 5.56L442.29 5.56Q443.21 6.26 443.21 7.46ZM439.63 6.02L439.80 6.29L439.80 6.29Q439.70 6.41 439.49 6.79L439.49 6.79L439.49 6.79Q439.28 7.17 439.00 7.69L439.00 7.69L439.00 7.69Q438.73 8.22 438.43 8.83L438.43 8.83L438.43 8.83Q438.13 9.45 437.85 10.05L437.85 10.05L437.85 10.05Q438.90 10.05 439.78 9.86L439.78 9.86L439.78 9.86Q440.66 9.66 441.31 9.30L441.31 9.30L441.31 9.30Q441.95 8.95 442.31 8.46L442.31 8.46L442.31 8.46Q442.67 7.98 442.67 7.39L442.67 7.39L442.67 7.39Q442.67 6.69 442.16 6.32L442.16 6.32L442.16 6.32Q441.66 5.95 440.61 5.95L440.61 5.95L440.61 5.95Q440.37 5.95 440.13 5.97L440.13 5.97L440.13 5.97Q439.89 5.99 439.63 6.02L439.63 6.02ZM456.04 9.21L456.04 9.21L456.04 9.21Q456.50 9.21 456.76 9.46L456.76 9.46L456.76 9.46Q457.02 9.72 457.02 10.16L457.02 10.16L457.02 10.16Q457.02 10.28 456.99 10.39L456.99 10.39L456.99 10.39Q456.97 10.51 456.95 10.60L456.95 10.60L456.95 10.60Q456.76 10.57 456.54 10.55L456.54 10.55L456.54 10.55Q456.32 10.53 456.01 10.53L456.01 10.53L456.01 10.53Q455.41 10.53 454.79 10.63L454.79 10.63L454.79 10.63Q454.17 10.74 453.61 10.81L453.61 10.81L453.61 10.81Q453.29 11.55 453.03 12.24L453.03 12.24L453.03 12.24Q452.76 12.94 452.57 13.51L452.57 13.51L452.57 13.51Q452.38 14.08 452.28 14.50L452.28 14.50L452.28 14.50Q452.17 14.92 452.16 15.13L452.16 15.13L452.16 15.13Q453.29 14.90 454.45 14.73L454.45 14.73L454.45 14.73Q455.60 14.56 456.88 14.48L456.88 14.48L456.88 14.48Q457.03 14.71 457.13 14.99L457.13 14.99L457.13 14.99Q457.24 15.27 457.24 15.60L457.24 15.60L457.24 15.60Q457.24 15.68 457.24 15.78L457.24 15.78L457.24 15.78Q457.24 15.88 457.21 15.97L457.21 15.97L457.21 15.97Q456.82 15.96 456.39 15.95L456.39 15.95L456.39 15.95Q455.95 15.95 455.25 15.95L455.25 15.95L455.25 15.95Q454.79 15.95 454.38 15.97L454.38 15.97L454.38 15.97Q453.96 15.99 453.54 16.03L453.54 16.03L453.54 16.03Q453.12 16.07 452.65 16.14L452.65 16.14L452.65 16.14Q452.19 16.21 451.60 16.31L451.60 16.31L451.60 16.31Q450.95 16.06 450.35 15.08L450.35 15.08L450.35 15.08Q450.59 14.57 451.02 13.54L451.02 13.54L451.02 13.54Q451.44 12.52 452.10 10.79L452.10 10.79L452.10 10.79Q451.47 10.60 451.28 10.09L451.28 10.09L451.28 10.09Q451.35 10.02 451.68 9.92L451.68 9.92L451.68 9.92Q452.02 9.81 452.51 9.70L452.51 9.70L452.51 9.70Q452.72 9.16 452.86 8.75L452.86 8.75L452.86 8.75Q453.01 8.34 453.12 7.99L453.12 7.99L453.12 7.99Q453.24 7.63 453.33 7.29L453.33 7.29L453.33 7.29Q453.42 6.94 453.50 6.54L453.50 6.54L453.50 6.54Q453.01 6.51 452.73 6.27L452.73 6.27L452.73 6.27Q452.45 6.02 452.45 5.63L452.45 5.63L452.45 5.63Q452.45 5.52 452.49 5.36L452.49 5.36L452.49 5.36Q452.52 5.21 452.56 5.10L452.56 5.10L452.56 5.10Q452.84 5.14 453.10 5.15L453.10 5.15L453.10 5.15Q453.36 5.17 453.78 5.17L453.78 5.17L453.78 5.17Q454.66 5.17 455.43 5.12L455.43 5.12L455.43 5.12Q456.20 5.07 456.83 5.01L456.83 5.01L456.83 5.01Q457.45 4.96 457.90 4.91L457.90 4.91L457.90 4.91Q458.35 4.86 458.58 4.86L458.58 4.86L458.58 4.86Q458.91 4.86 459.16 5.19L459.16 5.19L459.16 5.19Q459.41 5.53 459.54 6.15L459.54 6.15L459.54 6.15Q459.10 6.10 458.83 6.09L458.83 6.09L458.83 6.09Q458.56 6.08 458.35 6.08L458.35 6.08L458.35 6.08Q457.58 6.08 456.94 6.15L456.94 6.15L456.94 6.15Q456.30 6.23 455.71 6.31L455.71 6.31L455.71 6.31Q455.63 6.44 455.52 6.64L455.52 6.64L455.52 6.64Q455.42 6.83 455.25 7.18L455.25 7.18L455.25 7.18Q455.08 7.53 454.84 8.06L454.84 8.06L454.84 8.06Q454.59 8.60 454.24 9.39L454.24 9.39L454.24 9.39Q454.78 9.31 455.24 9.26L455.24 9.26L455.24 9.26Q455.71 9.21 456.04 9.21ZM467.03 16.24L467.03 16.24L467.03 16.24Q466.23 16.00 465.95 15.79L465.95 15.79L465.95 15.79Q465.67 15.57 465.67 15.19L465.67 15.19L465.67 15.19Q465.67 14.77 465.86 14.01L465.86 14.01L465.86 14.01Q466.06 13.24 466.37 12.31L466.37 12.31L466.37 12.31Q466.69 11.37 467.10 10.35L467.10 10.35L467.10 10.35Q467.50 9.32 467.92 8.39L467.92 8.39L467.92 8.39Q468.34 7.45 468.74 6.67L468.74 6.67L468.74 6.67Q469.14 5.89 469.45 5.46L469.45 5.46L469.35 4.87L469.35 4.87Q469.55 4.87 469.90 4.97L469.90 4.97L469.90 4.97Q470.25 5.07 470.60 5.21L470.60 5.21L470.60 5.21Q470.96 5.35 471.23 5.49L471.23 5.49L471.23 5.49Q471.51 5.64 471.53 5.74L471.53 5.74L471.53 5.74Q471.46 6.08 471.42 6.76L471.42 6.76L471.42 6.76Q471.38 7.43 471.38 8.20L471.38 8.20L471.38 8.20Q471.38 9.73 471.50 11.19L471.50 11.19L471.50 11.19Q471.62 12.66 472.05 14.17L472.05 14.17L472.05 14.17Q472.28 13.05 472.53 11.94L472.53 11.94L472.53 11.94Q472.79 10.82 473.07 9.81L473.07 9.81L473.07 9.81Q473.35 8.79 473.63 7.92L473.63 7.92L473.63 7.92Q473.91 7.06 474.17 6.40L474.17 6.40L474.17 6.40Q474.43 5.75 474.66 5.38L474.66 5.38L474.66 5.38Q474.88 5.01 475.06 4.98L475.06 4.98L475.06 4.98Q475.22 5.01 475.40 5.10L475.40 5.10L475.40 5.10Q475.58 5.19 475.75 5.32L475.75 5.32L475.75 5.32Q475.92 5.45 476.06 5.60L476.06 5.60L476.06 5.60Q476.20 5.75 476.28 5.91L476.28 5.91L476.28 5.91Q475.83 6.09 475.39 6.76L475.39 6.76L475.39 6.76Q474.95 7.43 474.55 8.39L474.55 8.39L474.55 8.39Q474.15 9.35 473.81 10.47L473.81 10.47L473.81 10.47Q473.47 11.59 473.21 12.68L473.21 12.68L473.21 12.68Q472.95 13.76 472.80 14.69L472.80 14.69L472.80 14.69Q472.65 15.61 472.64 16.17L472.64 16.17L472.64 16.17Q472.64 16.20 472.65 16.21L472.65 16.21L472.65 16.21Q472.61 16.23 472.56 16.23L472.56 16.23L472.56 16.23Q472.51 16.23 472.47 16.23L472.47 16.23L472.47 16.23Q471.83 16.23 471.33 16.07L471.33 16.07L471.33 16.07Q470.83 15.90 470.68 15.61L470.68 15.61L470.68 15.61Q470.39 14.43 470.19 13.34L470.19 13.34L470.19 13.34Q469.99 12.25 469.86 11.16L469.86 11.16L469.86 11.16Q469.73 10.07 469.65 8.95L469.65 8.95L469.65 8.95Q469.57 7.84 469.53 6.62L469.53 6.62L469.53 6.62Q469.27 7.04 468.97 7.72L468.97 7.72L468.97 7.72Q468.68 8.40 468.40 9.21L468.40 9.21L468.40 9.21Q468.12 10.02 467.86 10.92L467.86 10.92L467.86 10.92Q467.60 11.82 467.40 12.67L467.40 12.67L467.40 12.67Q467.21 13.52 467.10 14.29L467.10 14.29L467.10 14.29Q466.98 15.05 466.98 15.61L466.98 15.61L466.98 15.61Q466.98 15.90 466.99 16.03L466.99 16.03L466.99 16.03Q467.00 16.16 467.03 16.24ZM485.11 6.69L485.11 6.69L485.11 6.69Q484.55 6.69 484.25 6.38L484.25 6.38L484.25 6.38Q483.95 6.06 483.95 5.61L483.95 5.61L483.95 5.61Q483.95 5.50 483.99 5.35L483.99 5.35L483.99 5.35Q484.02 5.19 484.08 5.08L484.08 5.08L484.08 5.08Q484.26 5.17 484.62 5.20L484.62 5.20L484.62 5.20Q484.97 5.24 485.45 5.24L485.45 5.24L485.45 5.24Q486.16 5.24 487.07 5.17L487.07 5.17L487.07 5.17Q487.97 5.11 488.80 5.04L488.80 5.04L488.80 5.04Q489.62 4.97 490.25 4.91L490.25 4.91L490.25 4.91Q490.88 4.84 491.06 4.84L491.06 4.84L491.06 4.84Q491.58 4.84 491.81 5.23L491.81 5.23L491.81 5.23Q492.04 5.61 492.16 6.26L492.16 6.26L492.16 6.26Q491.79 6.23 491.43 6.21L491.43 6.21L491.43 6.21Q491.08 6.19 490.83 6.19L490.83 6.19L490.83 6.19Q490.38 6.19 489.92 6.22L489.92 6.22L489.92 6.22Q489.47 6.24 489.01 6.30L489.01 6.30L489.01 6.30Q488.81 6.71 488.57 7.26L488.57 7.26L488.57 7.26Q488.33 7.81 488.10 8.41L488.10 8.41L488.10 8.41Q487.87 9.02 487.66 9.61L487.66 9.61L487.66 9.61Q487.45 10.21 487.30 10.68L487.30 10.68L487.30 10.68Q486.99 11.61 486.76 12.39L486.76 12.39L486.76 12.39Q486.53 13.17 486.35 13.85L486.35 13.85L486.35 13.85Q486.18 14.53 486.05 15.15L486.05 15.15L486.05 15.15Q485.93 15.76 485.83 16.35L485.83 16.35L485.83 16.35Q484.89 16.21 484.26 15.18L484.26 15.18L484.26 15.18Q484.37 14.74 484.53 14.23L484.53 14.23L484.53 14.23Q484.69 13.72 484.91 13.07L484.91 13.07L484.91 13.07Q485.13 12.42 485.42 11.59L485.42 11.59L485.42 11.59Q485.72 10.77 486.09 9.72L486.09 9.72L486.09 9.72Q486.23 9.32 486.39 8.90L486.39 8.90L486.39 8.90Q486.54 8.47 486.69 8.05L486.69 8.05L486.69 8.05Q486.84 7.63 486.95 7.24L486.95 7.24L486.95 7.24Q487.07 6.85 487.16 6.52L487.16 6.52L487.16 6.52Q486.57 6.59 486.04 6.64L486.04 6.64L486.04 6.64Q485.52 6.69 485.11 6.69Z"></path></g></svg>